G04 #@! TF.FileFunction,Legend,Bot*
%FSLAX46Y46*%
G04 Gerber Fmt 4.6, Leading zero omitted, Abs format (unit mm)*
G04 Created by KiCad (PCBNEW 4.0.2-stable) date 3/28/2017 11:01:16 AM*
%MOMM*%
G01*
G04 APERTURE LIST*
%ADD10C,0.100000*%
%ADD11C,0.300000*%
%ADD12C,0.700000*%
%ADD13C,0.120000*%
%ADD14C,0.150000*%
%ADD15C,0.381000*%
G04 APERTURE END LIST*
D10*
D11*
X142619286Y-134707143D02*
X142619286Y-131707143D01*
X142619286Y-133135714D02*
X140905001Y-133135714D01*
X140905001Y-134707143D02*
X140905001Y-131707143D01*
X139476429Y-134707143D02*
X139476429Y-132707143D01*
X139476429Y-131707143D02*
X139619286Y-131850000D01*
X139476429Y-131992857D01*
X139333572Y-131850000D01*
X139476429Y-131707143D01*
X139476429Y-131992857D01*
X136762144Y-132707143D02*
X136762144Y-135135714D01*
X136905001Y-135421429D01*
X137047858Y-135564286D01*
X137333573Y-135707143D01*
X137762144Y-135707143D01*
X138047858Y-135564286D01*
X136762144Y-134564286D02*
X137047858Y-134707143D01*
X137619287Y-134707143D01*
X137905001Y-134564286D01*
X138047858Y-134421429D01*
X138190715Y-134135714D01*
X138190715Y-133278571D01*
X138047858Y-132992857D01*
X137905001Y-132850000D01*
X137619287Y-132707143D01*
X137047858Y-132707143D01*
X136762144Y-132850000D01*
X135333572Y-134707143D02*
X135333572Y-131707143D01*
X134047858Y-134707143D02*
X134047858Y-133135714D01*
X134190715Y-132850000D01*
X134476429Y-132707143D01*
X134905001Y-132707143D01*
X135190715Y-132850000D01*
X135333572Y-132992857D01*
X130762144Y-131707143D02*
X129762144Y-134707143D01*
X128762144Y-131707143D01*
X127333572Y-134707143D02*
X127619286Y-134564286D01*
X127762143Y-134421429D01*
X127905000Y-134135714D01*
X127905000Y-133278571D01*
X127762143Y-132992857D01*
X127619286Y-132850000D01*
X127333572Y-132707143D01*
X126905000Y-132707143D01*
X126619286Y-132850000D01*
X126476429Y-132992857D01*
X126333572Y-133278571D01*
X126333572Y-134135714D01*
X126476429Y-134421429D01*
X126619286Y-134564286D01*
X126905000Y-134707143D01*
X127333572Y-134707143D01*
X124619286Y-134707143D02*
X124905000Y-134564286D01*
X125047857Y-134278571D01*
X125047857Y-131707143D01*
X123905000Y-132707143D02*
X122762143Y-132707143D01*
X123476428Y-131707143D02*
X123476428Y-134278571D01*
X123333571Y-134564286D01*
X123047857Y-134707143D01*
X122762143Y-134707143D01*
X120476428Y-134707143D02*
X120476428Y-133135714D01*
X120619285Y-132850000D01*
X120904999Y-132707143D01*
X121476428Y-132707143D01*
X121762142Y-132850000D01*
X120476428Y-134564286D02*
X120762142Y-134707143D01*
X121476428Y-134707143D01*
X121762142Y-134564286D01*
X121904999Y-134278571D01*
X121904999Y-133992857D01*
X121762142Y-133707143D01*
X121476428Y-133564286D01*
X120762142Y-133564286D01*
X120476428Y-133421429D01*
X117762142Y-132707143D02*
X117762142Y-135135714D01*
X117904999Y-135421429D01*
X118047856Y-135564286D01*
X118333571Y-135707143D01*
X118762142Y-135707143D01*
X119047856Y-135564286D01*
X117762142Y-134564286D02*
X118047856Y-134707143D01*
X118619285Y-134707143D01*
X118904999Y-134564286D01*
X119047856Y-134421429D01*
X119190713Y-134135714D01*
X119190713Y-133278571D01*
X119047856Y-132992857D01*
X118904999Y-132850000D01*
X118619285Y-132707143D01*
X118047856Y-132707143D01*
X117762142Y-132850000D01*
X115190713Y-134564286D02*
X115476427Y-134707143D01*
X116047856Y-134707143D01*
X116333570Y-134564286D01*
X116476427Y-134278571D01*
X116476427Y-133135714D01*
X116333570Y-132850000D01*
X116047856Y-132707143D01*
X115476427Y-132707143D01*
X115190713Y-132850000D01*
X115047856Y-133135714D01*
X115047856Y-133421429D01*
X116476427Y-133707143D01*
X140333572Y-127722143D02*
X141762143Y-127722143D01*
X141762143Y-124722143D01*
X138905001Y-127722143D02*
X139190715Y-127579286D01*
X139333572Y-127436429D01*
X139476429Y-127150714D01*
X139476429Y-126293571D01*
X139333572Y-126007857D01*
X139190715Y-125865000D01*
X138905001Y-125722143D01*
X138476429Y-125722143D01*
X138190715Y-125865000D01*
X138047858Y-126007857D01*
X137905001Y-126293571D01*
X137905001Y-127150714D01*
X138047858Y-127436429D01*
X138190715Y-127579286D01*
X138476429Y-127722143D01*
X138905001Y-127722143D01*
X136905001Y-125722143D02*
X136333572Y-127722143D01*
X135762143Y-126293571D01*
X135190715Y-127722143D01*
X134619286Y-125722143D01*
X131619287Y-124722143D02*
X130619287Y-127722143D01*
X129619287Y-124722143D01*
X128190715Y-127722143D02*
X128476429Y-127579286D01*
X128619286Y-127436429D01*
X128762143Y-127150714D01*
X128762143Y-126293571D01*
X128619286Y-126007857D01*
X128476429Y-125865000D01*
X128190715Y-125722143D01*
X127762143Y-125722143D01*
X127476429Y-125865000D01*
X127333572Y-126007857D01*
X127190715Y-126293571D01*
X127190715Y-127150714D01*
X127333572Y-127436429D01*
X127476429Y-127579286D01*
X127762143Y-127722143D01*
X128190715Y-127722143D01*
X125476429Y-127722143D02*
X125762143Y-127579286D01*
X125905000Y-127293571D01*
X125905000Y-124722143D01*
X124762143Y-125722143D02*
X123619286Y-125722143D01*
X124333571Y-124722143D02*
X124333571Y-127293571D01*
X124190714Y-127579286D01*
X123905000Y-127722143D01*
X123619286Y-127722143D01*
X121333571Y-127722143D02*
X121333571Y-126150714D01*
X121476428Y-125865000D01*
X121762142Y-125722143D01*
X122333571Y-125722143D01*
X122619285Y-125865000D01*
X121333571Y-127579286D02*
X121619285Y-127722143D01*
X122333571Y-127722143D01*
X122619285Y-127579286D01*
X122762142Y-127293571D01*
X122762142Y-127007857D01*
X122619285Y-126722143D01*
X122333571Y-126579286D01*
X121619285Y-126579286D01*
X121333571Y-126436429D01*
X118619285Y-125722143D02*
X118619285Y-128150714D01*
X118762142Y-128436429D01*
X118904999Y-128579286D01*
X119190714Y-128722143D01*
X119619285Y-128722143D01*
X119904999Y-128579286D01*
X118619285Y-127579286D02*
X118904999Y-127722143D01*
X119476428Y-127722143D01*
X119762142Y-127579286D01*
X119904999Y-127436429D01*
X120047856Y-127150714D01*
X120047856Y-126293571D01*
X119904999Y-126007857D01*
X119762142Y-125865000D01*
X119476428Y-125722143D01*
X118904999Y-125722143D01*
X118619285Y-125865000D01*
X116047856Y-127579286D02*
X116333570Y-127722143D01*
X116904999Y-127722143D01*
X117190713Y-127579286D01*
X117333570Y-127293571D01*
X117333570Y-126150714D01*
X117190713Y-125865000D01*
X116904999Y-125722143D01*
X116333570Y-125722143D01*
X116047856Y-125865000D01*
X115904999Y-126150714D01*
X115904999Y-126436429D01*
X117333570Y-126722143D01*
D12*
X208280000Y-130175000D02*
X30480000Y-130175000D01*
D13*
X119515000Y-72810000D02*
X120515000Y-72810000D01*
X120515000Y-74510000D02*
X119515000Y-74510000D01*
X128405000Y-79160000D02*
X129405000Y-79160000D01*
X129405000Y-80860000D02*
X128405000Y-80860000D01*
X123690000Y-80860000D02*
X122690000Y-80860000D01*
X122690000Y-79160000D02*
X123690000Y-79160000D01*
X125595000Y-89115000D02*
X124595000Y-89115000D01*
X124595000Y-87415000D02*
X125595000Y-87415000D01*
D14*
X200745000Y-138420000D02*
X201145000Y-139370000D01*
X201145000Y-139370000D02*
X201095000Y-139470000D01*
D15*
X200493960Y-138370840D02*
X200944060Y-138170000D01*
X201342840Y-143169640D02*
X200143960Y-140070840D01*
X200143960Y-140070840D02*
X200743400Y-140469620D01*
X201744160Y-141170660D02*
X200443680Y-138369040D01*
X201342840Y-143169640D02*
X200743400Y-142471140D01*
X200944060Y-138170920D02*
X201744160Y-141170660D01*
X201744160Y-141170660D02*
X200545280Y-140370560D01*
X200545280Y-140370560D02*
X201342840Y-143169640D01*
X201342840Y-143169640D02*
X201444440Y-142270480D01*
X200845000Y-136779000D02*
X196146000Y-143764000D01*
X196146000Y-143764000D02*
X205544000Y-143764000D01*
X205544000Y-143764000D02*
X200845000Y-136779000D01*
D14*
X120657857Y-72112143D02*
X120705476Y-72159762D01*
X120848333Y-72207381D01*
X120943571Y-72207381D01*
X121086429Y-72159762D01*
X121181667Y-72064524D01*
X121229286Y-71969286D01*
X121276905Y-71778810D01*
X121276905Y-71635952D01*
X121229286Y-71445476D01*
X121181667Y-71350238D01*
X121086429Y-71255000D01*
X120943571Y-71207381D01*
X120848333Y-71207381D01*
X120705476Y-71255000D01*
X120657857Y-71302619D01*
X120324524Y-71207381D02*
X119705476Y-71207381D01*
X120038810Y-71588333D01*
X119895952Y-71588333D01*
X119800714Y-71635952D01*
X119753095Y-71683571D01*
X119705476Y-71778810D01*
X119705476Y-72016905D01*
X119753095Y-72112143D01*
X119800714Y-72159762D01*
X119895952Y-72207381D01*
X120181667Y-72207381D01*
X120276905Y-72159762D01*
X120324524Y-72112143D01*
X118753095Y-72207381D02*
X119324524Y-72207381D01*
X119038810Y-72207381D02*
X119038810Y-71207381D01*
X119134048Y-71350238D01*
X119229286Y-71445476D01*
X119324524Y-71493095D01*
X129071666Y-78617143D02*
X129119285Y-78664762D01*
X129262142Y-78712381D01*
X129357380Y-78712381D01*
X129500238Y-78664762D01*
X129595476Y-78569524D01*
X129643095Y-78474286D01*
X129690714Y-78283810D01*
X129690714Y-78140952D01*
X129643095Y-77950476D01*
X129595476Y-77855238D01*
X129500238Y-77760000D01*
X129357380Y-77712381D01*
X129262142Y-77712381D01*
X129119285Y-77760000D01*
X129071666Y-77807619D01*
X128690714Y-77807619D02*
X128643095Y-77760000D01*
X128547857Y-77712381D01*
X128309761Y-77712381D01*
X128214523Y-77760000D01*
X128166904Y-77807619D01*
X128119285Y-77902857D01*
X128119285Y-77998095D01*
X128166904Y-78140952D01*
X128738333Y-78712381D01*
X128119285Y-78712381D01*
X123356666Y-78462143D02*
X123404285Y-78509762D01*
X123547142Y-78557381D01*
X123642380Y-78557381D01*
X123785238Y-78509762D01*
X123880476Y-78414524D01*
X123928095Y-78319286D01*
X123975714Y-78128810D01*
X123975714Y-77985952D01*
X123928095Y-77795476D01*
X123880476Y-77700238D01*
X123785238Y-77605000D01*
X123642380Y-77557381D01*
X123547142Y-77557381D01*
X123404285Y-77605000D01*
X123356666Y-77652619D01*
X123023333Y-77557381D02*
X122356666Y-77557381D01*
X122785238Y-78557381D01*
X125261666Y-86717143D02*
X125309285Y-86764762D01*
X125452142Y-86812381D01*
X125547380Y-86812381D01*
X125690238Y-86764762D01*
X125785476Y-86669524D01*
X125833095Y-86574286D01*
X125880714Y-86383810D01*
X125880714Y-86240952D01*
X125833095Y-86050476D01*
X125785476Y-85955238D01*
X125690238Y-85860000D01*
X125547380Y-85812381D01*
X125452142Y-85812381D01*
X125309285Y-85860000D01*
X125261666Y-85907619D01*
X124690238Y-86240952D02*
X124785476Y-86193333D01*
X124833095Y-86145714D01*
X124880714Y-86050476D01*
X124880714Y-86002857D01*
X124833095Y-85907619D01*
X124785476Y-85860000D01*
X124690238Y-85812381D01*
X124499761Y-85812381D01*
X124404523Y-85860000D01*
X124356904Y-85907619D01*
X124309285Y-86002857D01*
X124309285Y-86050476D01*
X124356904Y-86145714D01*
X124404523Y-86193333D01*
X124499761Y-86240952D01*
X124690238Y-86240952D01*
X124785476Y-86288571D01*
X124833095Y-86336190D01*
X124880714Y-86431429D01*
X124880714Y-86621905D01*
X124833095Y-86717143D01*
X124785476Y-86764762D01*
X124690238Y-86812381D01*
X124499761Y-86812381D01*
X124404523Y-86764762D01*
X124356904Y-86717143D01*
X124309285Y-86621905D01*
X124309285Y-86431429D01*
X124356904Y-86336190D01*
X124404523Y-86288571D01*
X124499761Y-86240952D01*
M02*
