M48
;DRILL file {KiCad 4.0.7} date 02/23/18 16:40:48
;FORMAT={-:-/ absolute / inch / decimal}
FMAT,2
INCH,TZ
T1C0.016
T2C0.030
T3C0.035
T4C0.039
T5C0.047
T6C0.051
T7C0.055
T8C0.059
T9C0.063
T10C0.071
T11C0.102
T12C0.110
T13C0.130
T14C0.138
%
G90
G05
M72
T1
X1.425Y-3.475
X1.43Y-2.03
X1.6Y-3.9
X1.6Y-4.575
X1.65Y-0.68
X1.65Y-3.85
X1.65Y-5.625
X1.65Y-6.1
X1.675Y-3.95
X1.675Y-4.8
X1.68Y-0.85
X1.68Y-3.75
X1.725Y-5.45
X1.725Y-5.825
X1.74Y-1.39
X1.74Y-3.12
X1.82Y-2.92
X1.86Y-0.89
X1.86Y-2.9
X1.9Y-4.3
X1.9Y-4.45
X1.94Y-1.85
X1.95Y-5.575
X1.95Y-5.725
X1.975Y-5.525
X1.975Y-5.775
X1.975Y-5.825
X1.975Y-6.025
X2.Y-1.1269
X2.Y-2.55
X2.Y-3.25
X2.Y-3.5
X2.Y-3.85
X2.Y-4.9
X2.Y-5.725
X2.Y-5.925
X2.03Y-3.65
X2.05Y-1.19
X2.05Y-1.56
X2.05Y-1.97
X2.05Y-3.35
X2.05Y-3.45
X2.05Y-3.95
X2.05Y-4.1
X2.05Y-5.375
X2.05Y-5.475
X2.075Y-3.8
X2.075Y-4.425
X2.075Y-4.6
X2.175Y-1.74
X2.175Y-2.225
X2.175Y-2.7
X2.175Y-5.675
X2.18Y-1.45
X2.2Y-3.075
X2.2Y-3.29
X2.225Y-5.425
X2.225Y-5.575
X2.27Y-0.88
X2.27Y-1.12
X2.275Y-3.575
X2.275Y-3.65
X2.2992Y-4.7
X2.3Y-3.95
X2.3Y-4.1
X2.3Y-4.15
X2.3Y-4.25
X2.3Y-4.3
X2.3Y-4.875
X2.32Y-3.53
X2.32Y-3.75
X2.325Y-2.975
X2.325Y-3.025
X2.325Y-3.25
X2.325Y-5.525
X2.325Y-5.625
X2.325Y-5.775
X2.325Y-6.025
X2.325Y-6.1
X2.35Y-3.35
X2.35Y-3.45
X2.35Y-3.9
X2.35Y-4.8
X2.4Y-2.7
X2.4Y-2.8
X2.4Y-3.675
X2.4Y-4.
X2.4Y-4.05
X2.4Y-4.3
X2.4Y-4.4
X2.4Y-4.45
X2.4Y-5.3615
X2.4Y-5.7376
X2.43Y-0.68
X2.44Y-1.45
X2.45Y-4.025
X2.45Y-4.7684
X2.45Y-4.8
X2.45Y-4.925
X2.46Y-3.21
X2.46Y-3.35
X2.46Y-3.63
X2.49Y-3.95
X2.49Y-4.25
X2.49Y-4.45
X2.5Y-3.8
X2.54Y-3.47
X2.54Y-3.67
X2.55Y-4.35
X2.55Y-4.5
X2.575Y-4.15
X2.6Y-0.85
X2.6Y-2.7
X2.6Y-4.
X2.6Y-4.3
X2.6Y-6.1
X2.65Y-3.05
X2.65Y-3.2469
X2.65Y-3.7
X2.65Y-4.35
X2.675Y-2.85
X2.675Y-2.975
X2.675Y-3.45
X2.68Y-3.49
X2.68Y-3.53
X2.7Y-2.95
X2.7Y-3.05
X2.7Y-3.125
X2.8Y-1.84
X2.8Y-2.2
X2.8Y-3.25
X2.8Y-3.41
X2.8Y-3.7
X2.8Y-6.1
X2.9Y-3.7
X2.9Y-3.8
X2.9Y-4.55
X2.9Y-4.7
X2.91Y-3.26
X2.91Y-3.55
X2.925Y-3.85
X2.925Y-4.575
X2.95Y-3.675
X2.95Y-4.55
X2.97Y-3.1
X2.97Y-3.45
X2.975Y-3.55
X2.975Y-3.85
X2.975Y-4.05
X2.975Y-4.15
X3.Y-4.35
X3.Y-4.4
X3.025Y-3.3
X3.025Y-3.47
X3.025Y-3.575
X3.025Y-3.75
X3.025Y-3.8
X3.025Y-3.9
X3.025Y-3.95
X3.025Y-4.
X3.025Y-4.275
X3.025Y-4.75
X3.03Y-4.37
X3.1Y-3.66
X3.1Y-4.45
X3.1Y-4.525
X3.15Y-3.75
X3.15Y-4.15
X3.175Y-2.625
X3.175Y-2.95
X3.175Y-3.525
X3.175Y-3.625
X3.175Y-3.9
X3.175Y-3.975
X3.18Y-3.85
X3.2Y-3.25
X3.2001Y-4.45
X3.225Y-3.575
X3.225Y-4.175
X3.24Y-4.63
X3.24Y-4.85
X3.24Y-5.75
X3.24Y-6.02
X3.25Y-3.3531
X3.25Y-3.53
X3.25Y-3.6
X3.25Y-3.7
X3.3Y-3.09
X3.325Y-4.425
X3.33Y-4.775
X3.35Y-3.125
X3.35Y-3.7
X3.35Y-3.8
X3.375Y-4.
X3.375Y-4.25
X3.375Y-4.525
X3.375Y-4.625
X3.38Y-3.41
X3.38Y-3.85
X3.4Y-2.55
X3.4Y-2.75
X3.425Y-4.
X3.425Y-4.05
X3.45Y-2.85
X3.45Y-3.375
X3.45Y-3.85
X3.45Y-4.15
X3.4719Y-3.6
X3.475Y-3.7
X3.475Y-3.95
X3.475Y-4.625
X3.5Y-1.23
X3.5Y-2.62
X3.5Y-3.8
X3.525Y-4.325
X3.525Y-4.775
X3.55Y-4.2
X3.55Y-4.375
X3.57Y-1.12
X3.6Y-2.58
X3.7Y-3.175
X3.7Y-3.8
X3.7Y-3.9
X3.7Y-4.45
X3.7Y-4.55
X3.7031Y-3.7
X3.75Y-2.75
X3.8Y-3.225
X3.82Y-3.42
X3.825Y-3.625
X3.825Y-3.95
X3.85Y-4.
X3.85Y-4.05
X3.875Y-3.95
X3.88Y-1.33
X3.9Y-1.875
X3.9Y-4.
X3.9Y-4.075
X3.95Y-3.75
X3.95Y-4.1
X3.975Y-4.45
X3.975Y-4.575
X3.98Y-1.28
X4.Y-3.525
X4.Y-3.75
X4.025Y-5.925
X4.05Y-3.3
X4.05Y-4.
X4.06Y-2.62
X4.08Y-3.75
X4.15Y-3.9
X4.15Y-4.24
X4.15Y-4.6
X4.175Y-3.425
X4.2Y-3.25
X4.2Y-3.325
X4.21Y-1.55
X4.225Y-4.15
X4.24Y-2.58
X4.24Y-3.72
X4.275Y-3.55
X4.275Y-4.5
X4.3Y-2.
X4.3Y-2.575
X4.35Y-2.55
X4.35Y-2.875
X4.375Y-2.2
X4.4Y-3.325
X4.4Y-3.45
X4.425Y-2.025
X4.425Y-2.8
X4.425Y-3.35
X4.425Y-3.4
X4.45Y-2.55
X4.45Y-2.85
X4.475Y-2.95
X4.475Y-3.475
X4.5Y-2.225
X4.5Y-3.5
X4.5Y-3.9
X4.525Y-3.25
X4.525Y-3.375
X4.55Y-1.7
X4.55Y-3.225
X4.59Y-0.76
X4.59Y-1.18
X4.6Y-1.75
X4.6Y-2.475
X4.68Y-2.75
X4.725Y-3.05
X4.75Y-3.325
X4.77Y-1.28
X4.77Y-2.65
X4.77Y-3.06
X4.8Y-2.95
X4.8Y-3.525
X4.85Y-1.45
X4.85Y-2.3
X4.85Y-2.5
X4.85Y-2.7
X4.85Y-3.525
X4.8684Y-2.95
X4.87Y-2.76
X4.875Y-1.15
X4.875Y-3.05
X4.9Y-2.825
X4.9Y-2.95
X4.9Y-3.55
X4.92Y-1.23
X4.92Y-2.45
X4.93Y-3.66
X4.93Y-3.93
X4.95Y-1.18
X4.95Y-2.25
X4.95Y-2.875
X4.95Y-2.95
X4.96Y-3.89
X4.9616Y-3.67
X4.99Y-2.95
X4.99Y-3.75
X4.99Y-3.83
X4.9911Y-3.6572
X5.Y-2.85
X5.02Y-3.67
X5.02Y-3.72
X5.025Y-1.125
X5.025Y-2.8
X5.025Y-2.95
X5.05Y-1.875
X5.05Y-2.925
X5.08Y-3.08
X5.125Y-3.05
X5.19Y-5.55
X5.19Y-5.82
X5.2Y-2.05
X5.2Y-3.25
X5.275Y-4.875
X5.29Y-2.1
X5.3Y-2.25
X5.325Y-4.7
X5.325Y-4.875
X5.34Y-1.33
X5.34Y-3.13
X5.35Y-3.45
X5.35Y-3.5
X5.375Y-4.575
X5.375Y-4.875
X5.38Y-4.65
X5.4Y-3.2
X5.4Y-3.35
X5.425Y-5.55
X5.425Y-6.025
X5.43Y-3.73
X5.43Y-3.83
X5.45Y-2.9
X5.45Y-3.2
X5.5Y-3.3
X5.5Y-3.375
X5.5Y-3.6
X5.51Y-1.15
X5.51Y-2.72
X5.51Y-2.99
X5.55Y-3.05
X5.5531Y-2.275
X5.57Y-3.77
X5.57Y-4.24
X5.58Y-2.48
X5.58Y-3.09
X5.65Y-2.375
X5.675Y-1.125
X5.8Y-2.425
X5.8Y-3.64
X5.82Y-3.67
X5.825Y-2.275
X5.83Y-0.67
X5.83Y-1.45
X5.9Y-3.225
X5.9Y-4.375
X6.Y-1.15
X6.Y-2.375
X6.03Y-3.3
X6.03Y-3.4
X6.25Y-1.125
X6.25Y-2.375
X6.275Y-2.475
X6.4Y-1.45
X6.4Y-2.2
X6.4Y-4.6
X6.425Y-3.7
X6.45Y-2.075
X6.5Y-2.15
X6.54Y-3.4
X6.54Y-3.56
X6.575Y-2.85
X6.575Y-3.875
X6.6Y-3.325
X6.6Y-4.21
X6.625Y-2.975
X6.625Y-3.2
X6.65Y-2.76
X6.65Y-2.825
X6.65Y-3.45
X6.65Y-3.625
X6.65Y-3.925
X6.65Y-4.
X6.7Y-2.9
X6.7Y-3.625
X6.7Y-3.925
X6.7Y-3.975
X6.75Y-3.075
X6.75Y-3.625
X6.8008Y-3.7258
X6.85Y-3.375
X6.85Y-3.625
X6.9Y-3.4
X6.9Y-3.625
X6.95Y-3.425
X6.95Y-3.625
X6.975Y-3.225
X6.975Y-3.4
X7.Y-2.975
X7.Y-3.125
X7.Y-3.425
X7.025Y-3.375
X7.0281Y-3.025
X7.15Y-2.8
X7.15Y-3.22
X7.2Y-3.125
X7.25Y-2.9
X7.25Y-3.025
X7.25Y-3.325
X7.26Y-4.65
X7.275Y-3.7
X7.3Y-1.39
X7.3Y-2.96
X7.375Y-0.875
X7.375Y-2.2
X7.4Y-3.375
X7.4Y-3.45
X7.45Y-3.125
X7.45Y-3.225
X7.6041Y-4.6959
X7.65Y-3.75
X7.65Y-3.8
X7.65Y-3.85
X7.65Y-3.95
X7.725Y-3.2
X7.725Y-3.425
X7.725Y-3.75
X7.75Y-4.
X7.775Y-3.65
X7.775Y-3.975
X7.8Y-3.55
X7.8008Y-3.45
X7.85Y-4.
X8.Y-3.45
X8.Y-3.55
X8.Y-3.6
T2
X1.55Y-2.65
X1.55Y-2.7681
X1.55Y-2.8862
X1.55Y-3.0043
X1.55Y-3.1224
X1.55Y-3.2406
X1.55Y-3.3587
X1.55Y-3.4768
T3
X4.35Y-1.8201
X4.35Y-1.95
X4.4484Y-1.8201
X4.4484Y-1.95
X4.5469Y-1.8201
X4.5469Y-1.95
T4
X1.825Y-4.
X1.825Y-4.1
X1.825Y-4.2
X2.4Y-2.7
X2.5Y-2.7
X2.6Y-2.7
T5
X2.5Y-5.775
X2.6Y-5.775
X2.7Y-5.775
X2.8Y-5.775
X3.3Y-1.7
X3.4Y-1.7
X3.5Y-1.7
X3.6Y-1.7
X3.7Y-1.7
X3.8Y-1.7
X3.9Y-1.7
X4.Y-1.7
T6
X6.7Y-1.7
X6.7Y-2.1
X6.7Y-2.5
X7.5Y-2.
X7.5Y-2.2
X7.5Y-2.5
T7
X1.425Y-3.9
X1.425Y-4.1165
X1.7732Y-0.7585
X1.7732Y-0.975
X1.9386Y-0.7585
X1.9386Y-0.975
X2.1039Y-0.7585
X2.1039Y-0.975
X2.2693Y-0.7585
X2.2693Y-0.975
X2.4346Y-0.7585
X2.4346Y-0.975
X2.6Y-0.7585
X2.6Y-0.975
X2.9136Y-0.7585
X2.9136Y-0.975
X3.0789Y-0.7585
X3.0789Y-0.975
X3.2443Y-0.7585
X3.2443Y-0.975
X3.4096Y-0.7585
X3.4096Y-0.975
X3.575Y-0.7585
X3.575Y-0.975
X3.8789Y-0.7585
X3.8789Y-0.975
X4.0443Y-0.7585
X4.0443Y-0.975
X4.2096Y-0.7585
X4.2096Y-0.975
X4.375Y-0.7585
X4.375Y-0.975
X4.6943Y-0.7585
X4.6943Y-0.975
X4.8596Y-0.7585
X4.8596Y-0.975
X5.025Y-0.7585
X5.025Y-0.975
X5.3443Y-0.7585
X5.3443Y-0.975
X5.5096Y-0.7585
X5.5096Y-0.975
X5.675Y-0.7585
X5.675Y-0.975
X5.9846Y-0.7585
X5.9846Y-0.975
X6.15Y-0.7585
X6.15Y-0.975
X6.45Y-0.7585
X6.45Y-0.975
T8
X1.3799Y-2.7346
X1.3799Y-3.3921
T9
X6.03Y-5.68
X6.33Y-4.33
X6.48Y-5.68
X6.63Y-4.33
X6.93Y-5.68
X7.23Y-5.68
X7.38Y-4.33
X7.38Y-5.68
T10
X4.0049Y-5.6
X4.1049Y-5.6
X4.4451Y-5.6
X4.5451Y-5.6
T11
X5.705Y-4.498
X5.705Y-5.6
X7.697Y-4.498
X7.697Y-5.6
T12
X5.0549Y-5.4248
T13
X3.4951Y-5.6
X5.0549Y-5.6
T14
X1.4Y-1.35
X1.4Y-5.95
X2.5Y-2.0441
X7.975Y-1.35
X7.975Y-5.95
T0
M30
