G04 #@! TF.FileFunction,Legend,Bot*
%FSLAX46Y46*%
G04 Gerber Fmt 4.6, Leading zero omitted, Abs format (unit mm)*
G04 Created by KiCad (PCBNEW 4.0.7) date 02/23/18 16:40:34*
%MOMM*%
%LPD*%
G01*
G04 APERTURE LIST*
%ADD10C,0.100000*%
%ADD11C,0.300000*%
%ADD12C,0.700000*%
%ADD13C,0.120000*%
%ADD14C,0.150000*%
G04 APERTURE END LIST*
D10*
D11*
X121029286Y-134707143D02*
X121029286Y-131707143D01*
X121029286Y-133135714D02*
X119315001Y-133135714D01*
X119315001Y-134707143D02*
X119315001Y-131707143D01*
X117886429Y-134707143D02*
X117886429Y-132707143D01*
X117886429Y-131707143D02*
X118029286Y-131850000D01*
X117886429Y-131992857D01*
X117743572Y-131850000D01*
X117886429Y-131707143D01*
X117886429Y-131992857D01*
X115172144Y-132707143D02*
X115172144Y-135135714D01*
X115315001Y-135421429D01*
X115457858Y-135564286D01*
X115743573Y-135707143D01*
X116172144Y-135707143D01*
X116457858Y-135564286D01*
X115172144Y-134564286D02*
X115457858Y-134707143D01*
X116029287Y-134707143D01*
X116315001Y-134564286D01*
X116457858Y-134421429D01*
X116600715Y-134135714D01*
X116600715Y-133278571D01*
X116457858Y-132992857D01*
X116315001Y-132850000D01*
X116029287Y-132707143D01*
X115457858Y-132707143D01*
X115172144Y-132850000D01*
X113743572Y-134707143D02*
X113743572Y-131707143D01*
X112457858Y-134707143D02*
X112457858Y-133135714D01*
X112600715Y-132850000D01*
X112886429Y-132707143D01*
X113315001Y-132707143D01*
X113600715Y-132850000D01*
X113743572Y-132992857D01*
X109172144Y-131707143D02*
X108172144Y-134707143D01*
X107172144Y-131707143D01*
X105743572Y-134707143D02*
X106029286Y-134564286D01*
X106172143Y-134421429D01*
X106315000Y-134135714D01*
X106315000Y-133278571D01*
X106172143Y-132992857D01*
X106029286Y-132850000D01*
X105743572Y-132707143D01*
X105315000Y-132707143D01*
X105029286Y-132850000D01*
X104886429Y-132992857D01*
X104743572Y-133278571D01*
X104743572Y-134135714D01*
X104886429Y-134421429D01*
X105029286Y-134564286D01*
X105315000Y-134707143D01*
X105743572Y-134707143D01*
X103029286Y-134707143D02*
X103315000Y-134564286D01*
X103457857Y-134278571D01*
X103457857Y-131707143D01*
X102315000Y-132707143D02*
X101172143Y-132707143D01*
X101886428Y-131707143D02*
X101886428Y-134278571D01*
X101743571Y-134564286D01*
X101457857Y-134707143D01*
X101172143Y-134707143D01*
X98886428Y-134707143D02*
X98886428Y-133135714D01*
X99029285Y-132850000D01*
X99314999Y-132707143D01*
X99886428Y-132707143D01*
X100172142Y-132850000D01*
X98886428Y-134564286D02*
X99172142Y-134707143D01*
X99886428Y-134707143D01*
X100172142Y-134564286D01*
X100314999Y-134278571D01*
X100314999Y-133992857D01*
X100172142Y-133707143D01*
X99886428Y-133564286D01*
X99172142Y-133564286D01*
X98886428Y-133421429D01*
X96172142Y-132707143D02*
X96172142Y-135135714D01*
X96314999Y-135421429D01*
X96457856Y-135564286D01*
X96743571Y-135707143D01*
X97172142Y-135707143D01*
X97457856Y-135564286D01*
X96172142Y-134564286D02*
X96457856Y-134707143D01*
X97029285Y-134707143D01*
X97314999Y-134564286D01*
X97457856Y-134421429D01*
X97600713Y-134135714D01*
X97600713Y-133278571D01*
X97457856Y-132992857D01*
X97314999Y-132850000D01*
X97029285Y-132707143D01*
X96457856Y-132707143D01*
X96172142Y-132850000D01*
X93600713Y-134564286D02*
X93886427Y-134707143D01*
X94457856Y-134707143D01*
X94743570Y-134564286D01*
X94886427Y-134278571D01*
X94886427Y-133135714D01*
X94743570Y-132850000D01*
X94457856Y-132707143D01*
X93886427Y-132707143D01*
X93600713Y-132850000D01*
X93457856Y-133135714D01*
X93457856Y-133421429D01*
X94886427Y-133707143D01*
X118743572Y-127722143D02*
X120172143Y-127722143D01*
X120172143Y-124722143D01*
X117315001Y-127722143D02*
X117600715Y-127579286D01*
X117743572Y-127436429D01*
X117886429Y-127150714D01*
X117886429Y-126293571D01*
X117743572Y-126007857D01*
X117600715Y-125865000D01*
X117315001Y-125722143D01*
X116886429Y-125722143D01*
X116600715Y-125865000D01*
X116457858Y-126007857D01*
X116315001Y-126293571D01*
X116315001Y-127150714D01*
X116457858Y-127436429D01*
X116600715Y-127579286D01*
X116886429Y-127722143D01*
X117315001Y-127722143D01*
X115315001Y-125722143D02*
X114743572Y-127722143D01*
X114172143Y-126293571D01*
X113600715Y-127722143D01*
X113029286Y-125722143D01*
X110029287Y-124722143D02*
X109029287Y-127722143D01*
X108029287Y-124722143D01*
X106600715Y-127722143D02*
X106886429Y-127579286D01*
X107029286Y-127436429D01*
X107172143Y-127150714D01*
X107172143Y-126293571D01*
X107029286Y-126007857D01*
X106886429Y-125865000D01*
X106600715Y-125722143D01*
X106172143Y-125722143D01*
X105886429Y-125865000D01*
X105743572Y-126007857D01*
X105600715Y-126293571D01*
X105600715Y-127150714D01*
X105743572Y-127436429D01*
X105886429Y-127579286D01*
X106172143Y-127722143D01*
X106600715Y-127722143D01*
X103886429Y-127722143D02*
X104172143Y-127579286D01*
X104315000Y-127293571D01*
X104315000Y-124722143D01*
X103172143Y-125722143D02*
X102029286Y-125722143D01*
X102743571Y-124722143D02*
X102743571Y-127293571D01*
X102600714Y-127579286D01*
X102315000Y-127722143D01*
X102029286Y-127722143D01*
X99743571Y-127722143D02*
X99743571Y-126150714D01*
X99886428Y-125865000D01*
X100172142Y-125722143D01*
X100743571Y-125722143D01*
X101029285Y-125865000D01*
X99743571Y-127579286D02*
X100029285Y-127722143D01*
X100743571Y-127722143D01*
X101029285Y-127579286D01*
X101172142Y-127293571D01*
X101172142Y-127007857D01*
X101029285Y-126722143D01*
X100743571Y-126579286D01*
X100029285Y-126579286D01*
X99743571Y-126436429D01*
X97029285Y-125722143D02*
X97029285Y-128150714D01*
X97172142Y-128436429D01*
X97314999Y-128579286D01*
X97600714Y-128722143D01*
X98029285Y-128722143D01*
X98314999Y-128579286D01*
X97029285Y-127579286D02*
X97314999Y-127722143D01*
X97886428Y-127722143D01*
X98172142Y-127579286D01*
X98314999Y-127436429D01*
X98457856Y-127150714D01*
X98457856Y-126293571D01*
X98314999Y-126007857D01*
X98172142Y-125865000D01*
X97886428Y-125722143D01*
X97314999Y-125722143D01*
X97029285Y-125865000D01*
X94457856Y-127579286D02*
X94743570Y-127722143D01*
X95314999Y-127722143D01*
X95600713Y-127579286D01*
X95743570Y-127293571D01*
X95743570Y-126150714D01*
X95600713Y-125865000D01*
X95314999Y-125722143D01*
X94743570Y-125722143D01*
X94457856Y-125865000D01*
X94314999Y-126150714D01*
X94314999Y-126436429D01*
X95743570Y-126722143D01*
D12*
X208280000Y-130175000D02*
X30480000Y-130175000D01*
D13*
X119515000Y-72810000D02*
X120515000Y-72810000D01*
X120515000Y-74510000D02*
X119515000Y-74510000D01*
X128405000Y-79160000D02*
X129405000Y-79160000D01*
X129405000Y-80860000D02*
X128405000Y-80860000D01*
X123690000Y-80860000D02*
X122690000Y-80860000D01*
X122690000Y-79160000D02*
X123690000Y-79160000D01*
X125595000Y-89115000D02*
X124595000Y-89115000D01*
X124595000Y-87415000D02*
X125595000Y-87415000D01*
D14*
X120657857Y-72112143D02*
X120705476Y-72159762D01*
X120848333Y-72207381D01*
X120943571Y-72207381D01*
X121086429Y-72159762D01*
X121181667Y-72064524D01*
X121229286Y-71969286D01*
X121276905Y-71778810D01*
X121276905Y-71635952D01*
X121229286Y-71445476D01*
X121181667Y-71350238D01*
X121086429Y-71255000D01*
X120943571Y-71207381D01*
X120848333Y-71207381D01*
X120705476Y-71255000D01*
X120657857Y-71302619D01*
X120324524Y-71207381D02*
X119705476Y-71207381D01*
X120038810Y-71588333D01*
X119895952Y-71588333D01*
X119800714Y-71635952D01*
X119753095Y-71683571D01*
X119705476Y-71778810D01*
X119705476Y-72016905D01*
X119753095Y-72112143D01*
X119800714Y-72159762D01*
X119895952Y-72207381D01*
X120181667Y-72207381D01*
X120276905Y-72159762D01*
X120324524Y-72112143D01*
X118753095Y-72207381D02*
X119324524Y-72207381D01*
X119038810Y-72207381D02*
X119038810Y-71207381D01*
X119134048Y-71350238D01*
X119229286Y-71445476D01*
X119324524Y-71493095D01*
X129071666Y-78617143D02*
X129119285Y-78664762D01*
X129262142Y-78712381D01*
X129357380Y-78712381D01*
X129500238Y-78664762D01*
X129595476Y-78569524D01*
X129643095Y-78474286D01*
X129690714Y-78283810D01*
X129690714Y-78140952D01*
X129643095Y-77950476D01*
X129595476Y-77855238D01*
X129500238Y-77760000D01*
X129357380Y-77712381D01*
X129262142Y-77712381D01*
X129119285Y-77760000D01*
X129071666Y-77807619D01*
X128690714Y-77807619D02*
X128643095Y-77760000D01*
X128547857Y-77712381D01*
X128309761Y-77712381D01*
X128214523Y-77760000D01*
X128166904Y-77807619D01*
X128119285Y-77902857D01*
X128119285Y-77998095D01*
X128166904Y-78140952D01*
X128738333Y-78712381D01*
X128119285Y-78712381D01*
X123356666Y-78462143D02*
X123404285Y-78509762D01*
X123547142Y-78557381D01*
X123642380Y-78557381D01*
X123785238Y-78509762D01*
X123880476Y-78414524D01*
X123928095Y-78319286D01*
X123975714Y-78128810D01*
X123975714Y-77985952D01*
X123928095Y-77795476D01*
X123880476Y-77700238D01*
X123785238Y-77605000D01*
X123642380Y-77557381D01*
X123547142Y-77557381D01*
X123404285Y-77605000D01*
X123356666Y-77652619D01*
X123023333Y-77557381D02*
X122356666Y-77557381D01*
X122785238Y-78557381D01*
X125261666Y-86717143D02*
X125309285Y-86764762D01*
X125452142Y-86812381D01*
X125547380Y-86812381D01*
X125690238Y-86764762D01*
X125785476Y-86669524D01*
X125833095Y-86574286D01*
X125880714Y-86383810D01*
X125880714Y-86240952D01*
X125833095Y-86050476D01*
X125785476Y-85955238D01*
X125690238Y-85860000D01*
X125547380Y-85812381D01*
X125452142Y-85812381D01*
X125309285Y-85860000D01*
X125261666Y-85907619D01*
X124690238Y-86240952D02*
X124785476Y-86193333D01*
X124833095Y-86145714D01*
X124880714Y-86050476D01*
X124880714Y-86002857D01*
X124833095Y-85907619D01*
X124785476Y-85860000D01*
X124690238Y-85812381D01*
X124499761Y-85812381D01*
X124404523Y-85860000D01*
X124356904Y-85907619D01*
X124309285Y-86002857D01*
X124309285Y-86050476D01*
X124356904Y-86145714D01*
X124404523Y-86193333D01*
X124499761Y-86240952D01*
X124690238Y-86240952D01*
X124785476Y-86288571D01*
X124833095Y-86336190D01*
X124880714Y-86431429D01*
X124880714Y-86621905D01*
X124833095Y-86717143D01*
X124785476Y-86764762D01*
X124690238Y-86812381D01*
X124499761Y-86812381D01*
X124404523Y-86764762D01*
X124356904Y-86717143D01*
X124309285Y-86621905D01*
X124309285Y-86431429D01*
X124356904Y-86336190D01*
X124404523Y-86288571D01*
X124499761Y-86240952D01*
M02*
