G04 #@! TF.FileFunction,Soldermask,Bot*
%FSLAX46Y46*%
G04 Gerber Fmt 4.6, Leading zero omitted, Abs format (unit mm)*
G04 Created by KiCad (PCBNEW 4.0.2-stable) date 3/28/2017 11:01:16 AM*
%MOMM*%
G01*
G04 APERTURE LIST*
%ADD10C,0.100000*%
%ADD11O,3.400000X1.900000*%
%ADD12C,1.900000*%
%ADD13R,1.900000X1.650000*%
%ADD14C,2.400000*%
%ADD15R,1.924000X1.924000*%
%ADD16C,1.924000*%
%ADD17R,2.100000X2.100000*%
%ADD18O,2.100000X2.100000*%
%ADD19R,2.400000X3.000000*%
%ADD20O,2.400000X3.000000*%
%ADD21R,2.127200X2.127200*%
%ADD22O,2.127200X2.127200*%
%ADD23C,3.150000*%
%ADD24C,3.900000*%
%ADD25C,3.400000*%
%ADD26C,7.400000*%
%ADD27C,4.900000*%
%ADD28R,2.200000X2.200000*%
%ADD29O,2.200000X2.200000*%
G04 APERTURE END LIST*
D10*
D11*
X34925000Y-135255000D03*
X34925000Y-132715000D03*
X34925000Y-127635000D03*
X34925000Y-122555000D03*
D12*
X105410000Y-144495000D03*
D13*
X121265000Y-73660000D03*
X118765000Y-73660000D03*
D14*
X170180000Y-53340000D03*
X170180000Y-63500000D03*
X170180000Y-43180000D03*
X190500000Y-63500000D03*
X190500000Y-55880000D03*
X190500000Y-50800000D03*
D15*
X110490000Y-49530000D03*
D16*
X112990000Y-49530000D03*
X115490000Y-49530000D03*
X110490000Y-46230000D03*
X112990000Y-46230000D03*
X115490000Y-46230000D03*
D17*
X63500000Y-102870000D03*
D18*
X63500000Y-105410000D03*
X63500000Y-107950000D03*
D19*
X83820000Y-43815000D03*
D20*
X86360000Y-43815000D03*
X88900000Y-43815000D03*
X91440000Y-43815000D03*
X93980000Y-43815000D03*
X96520000Y-43815000D03*
X99060000Y-43815000D03*
X101600000Y-43815000D03*
D21*
X38100000Y-107950000D03*
D22*
X35560000Y-107950000D03*
X38100000Y-105410000D03*
X35560000Y-105410000D03*
X38100000Y-102870000D03*
X35560000Y-102870000D03*
X38100000Y-100330000D03*
X35560000Y-100330000D03*
X38100000Y-97790000D03*
X35560000Y-97790000D03*
X38100000Y-95250000D03*
X35560000Y-95250000D03*
X38100000Y-92710000D03*
X35560000Y-92710000D03*
X38100000Y-90170000D03*
X35560000Y-90170000D03*
X38100000Y-87630000D03*
X35560000Y-87630000D03*
X38100000Y-85090000D03*
X35560000Y-85090000D03*
D21*
X156210000Y-60960000D03*
D22*
X153670000Y-60960000D03*
X156210000Y-58420000D03*
X153670000Y-58420000D03*
X156210000Y-55880000D03*
X153670000Y-55880000D03*
X156210000Y-53340000D03*
X153670000Y-53340000D03*
X156210000Y-50800000D03*
X153670000Y-50800000D03*
X156210000Y-48260000D03*
X153670000Y-48260000D03*
X156210000Y-45720000D03*
X153670000Y-45720000D03*
D19*
X87630000Y-144780000D03*
D20*
X85090000Y-144780000D03*
X82550000Y-144780000D03*
X80010000Y-144780000D03*
D23*
X175770000Y-147320000D03*
X173230000Y-147320000D03*
X162050000Y-147320000D03*
X164590000Y-147320000D03*
D24*
X188720000Y-147320000D03*
X149100000Y-147320000D03*
D25*
X188720000Y-142870000D03*
D13*
X130155000Y-80010000D03*
X127655000Y-80010000D03*
X121940000Y-80010000D03*
X124440000Y-80010000D03*
X123845000Y-88265000D03*
X126345000Y-88265000D03*
D26*
X202565000Y-151130000D03*
X35560000Y-151130000D03*
X35560000Y-34290000D03*
X202565000Y-34290000D03*
D27*
X63500000Y-51920000D03*
D28*
X60960000Y-68580000D03*
D29*
X63500000Y-68580000D03*
X66040000Y-68580000D03*
M02*
