G04 #@! TF.FileFunction,Soldermask,Top*
%FSLAX46Y46*%
G04 Gerber Fmt 4.6, Leading zero omitted, Abs format (unit mm)*
G04 Created by KiCad (PCBNEW 4.0.7) date 02/23/18 16:40:34*
%MOMM*%
%LPD*%
G01*
G04 APERTURE LIST*
%ADD10C,0.100000*%
%ADD11R,3.200000X3.200000*%
%ADD12C,3.200000*%
%ADD13R,2.400000X4.200000*%
%ADD14R,2.400000X1.900000*%
%ADD15C,2.940000*%
%ADD16C,4.210000*%
%ADD17R,2.400000X2.400000*%
%ADD18R,2.000000X2.400000*%
%ADD19R,1.900000X0.950000*%
%ADD20R,0.950000X1.900000*%
%ADD21R,1.900000X1.000000*%
%ADD22R,1.950000X1.000000*%
%ADD23R,1.650000X1.900000*%
%ADD24R,1.040000X2.305000*%
%ADD25R,1.050000X2.305000*%
%ADD26R,2.400000X2.900000*%
%ADD27R,1.900000X1.650000*%
%ADD28R,1.160000X2.800000*%
%ADD29R,1.600000X1.600000*%
%ADD30R,5.400000X1.160000*%
%ADD31R,4.900000X9.200000*%
%ADD32R,1.300000X1.200000*%
%ADD33R,1.200000X1.300000*%
%ADD34R,1.900000X1.700000*%
%ADD35R,1.700000X1.900000*%
%ADD36R,1.700000X1.200000*%
%ADD37C,2.400000*%
%ADD38R,1.000000X1.900000*%
%ADD39R,1.960000X1.050000*%
%ADD40O,1.873200X1.009600*%
%ADD41R,3.225000X1.800000*%
%ADD42R,1.924000X1.924000*%
%ADD43C,1.924000*%
%ADD44R,2.900000X2.900000*%
%ADD45C,3.400000*%
%ADD46R,3.400000X3.400000*%
%ADD47R,2.400000X3.000000*%
%ADD48O,2.400000X3.000000*%
%ADD49C,7.400000*%
%ADD50C,4.900000*%
%ADD51R,2.200000X2.200000*%
%ADD52O,2.200000X2.200000*%
%ADD53R,2.100000X2.100000*%
%ADD54O,2.100000X2.100000*%
%ADD55C,1.900000*%
%ADD56C,3.150000*%
%ADD57C,3.900000*%
%ADD58R,2.900000X4.400000*%
%ADD59C,0.254000*%
G04 APERTURE END LIST*
D10*
D11*
X144145000Y-24765000D03*
D12*
X139945000Y-24765000D03*
X135745000Y-24765000D03*
X144145000Y-19265000D03*
X139945000Y-19265000D03*
X135745000Y-19265000D03*
D13*
X66802000Y-41910000D03*
D14*
X60502000Y-41910000D03*
X60502000Y-44210000D03*
X60502000Y-39610000D03*
D15*
X153162000Y-144272000D03*
X164592000Y-144272000D03*
X176022000Y-144272000D03*
X183642000Y-144272000D03*
X187452000Y-144272000D03*
X160782000Y-109982000D03*
X168402000Y-109982000D03*
X187452000Y-109982000D03*
D16*
X144907000Y-142240000D03*
X144907000Y-114249200D03*
X195503800Y-142240000D03*
X195503800Y-114249200D03*
D17*
X91440000Y-106220000D03*
D18*
X90265000Y-112220000D03*
X92615000Y-112220000D03*
D19*
X118665000Y-77820000D03*
X118665000Y-78620000D03*
X118665000Y-79420000D03*
X118665000Y-80220000D03*
X118665000Y-81020000D03*
X118665000Y-81820000D03*
X118665000Y-82620000D03*
X118665000Y-83420000D03*
X118665000Y-84220000D03*
X118665000Y-85020000D03*
X118665000Y-85820000D03*
X118665000Y-86620000D03*
X118665000Y-87420000D03*
X118665000Y-88220000D03*
X118665000Y-89020000D03*
X118665000Y-89820000D03*
D20*
X120365000Y-91520000D03*
X121165000Y-91520000D03*
X121965000Y-91520000D03*
X122765000Y-91520000D03*
X123565000Y-91520000D03*
X124365000Y-91520000D03*
X125165000Y-91520000D03*
X125965000Y-91520000D03*
X126765000Y-91520000D03*
X127565000Y-91520000D03*
X128365000Y-91520000D03*
X129165000Y-91520000D03*
X129965000Y-91520000D03*
X130765000Y-91520000D03*
X131565000Y-91520000D03*
X132365000Y-91520000D03*
D19*
X134065000Y-89820000D03*
X134065000Y-89020000D03*
X134065000Y-88220000D03*
X134065000Y-87420000D03*
X134065000Y-86620000D03*
X134065000Y-85820000D03*
X134065000Y-85020000D03*
X134065000Y-84220000D03*
X134065000Y-83420000D03*
X134065000Y-82620000D03*
X134065000Y-81820000D03*
X134065000Y-81020000D03*
X134065000Y-80220000D03*
X134065000Y-79420000D03*
X134065000Y-78620000D03*
X134065000Y-77820000D03*
D20*
X132365000Y-76120000D03*
X131565000Y-76120000D03*
X130765000Y-76120000D03*
X129965000Y-76120000D03*
X129165000Y-76120000D03*
X128365000Y-76120000D03*
X127565000Y-76120000D03*
X126765000Y-76120000D03*
X125965000Y-76120000D03*
X125165000Y-76120000D03*
X124365000Y-76120000D03*
X123565000Y-76120000D03*
X122765000Y-76120000D03*
X121965000Y-76120000D03*
X121165000Y-76120000D03*
X120365000Y-76120000D03*
D21*
X106840000Y-104140000D03*
X106840000Y-102870000D03*
X106840000Y-101600000D03*
X106840000Y-100330000D03*
X106840000Y-99060000D03*
X106840000Y-97790000D03*
X106840000Y-96520000D03*
X101440000Y-96520000D03*
X101440000Y-97790000D03*
X101440000Y-99060000D03*
X101440000Y-100330000D03*
X101440000Y-101600000D03*
X101440000Y-102870000D03*
X101440000Y-104140000D03*
D22*
X60800000Y-75565000D03*
X60800000Y-76835000D03*
X60800000Y-78105000D03*
X60800000Y-79375000D03*
X66200000Y-79375000D03*
X66200000Y-78105000D03*
X66200000Y-76835000D03*
X66200000Y-75565000D03*
D23*
X136525000Y-140970000D03*
X136525000Y-143470000D03*
D24*
X133985000Y-136182500D03*
X135255000Y-136182500D03*
X136525000Y-136182500D03*
X137795000Y-136182500D03*
D25*
X137795000Y-125437500D03*
X136525000Y-125437500D03*
D24*
X135255000Y-125437500D03*
X133985000Y-125437500D03*
D26*
X172625000Y-71755000D03*
X176625000Y-71755000D03*
D23*
X135128000Y-100604000D03*
X135128000Y-103104000D03*
D27*
X127528000Y-100076000D03*
X130028000Y-100076000D03*
D23*
X202565000Y-52090000D03*
X202565000Y-54590000D03*
X197485000Y-52090000D03*
X197485000Y-54590000D03*
D27*
X59670000Y-71120000D03*
X57170000Y-71120000D03*
X52030000Y-56388000D03*
X49530000Y-56388000D03*
X55860000Y-85090000D03*
X53360000Y-85090000D03*
X69870000Y-77470000D03*
X72370000Y-77470000D03*
X69870000Y-90170000D03*
X72370000Y-90170000D03*
D23*
X92710000Y-121245000D03*
X92710000Y-118745000D03*
D27*
X48728000Y-78232000D03*
X46228000Y-78232000D03*
X79395000Y-70485000D03*
X81895000Y-70485000D03*
X199390000Y-100330000D03*
X201890000Y-100330000D03*
X199410000Y-87630000D03*
X201910000Y-87630000D03*
X193020000Y-97790000D03*
X190520000Y-97790000D03*
X57130000Y-119380000D03*
X54630000Y-119380000D03*
X57130000Y-121920000D03*
X54630000Y-121920000D03*
X199410000Y-97790000D03*
X201910000Y-97790000D03*
X52090000Y-142875000D03*
X54590000Y-142875000D03*
X48240000Y-142875000D03*
X45740000Y-142875000D03*
X156825000Y-62865000D03*
X154325000Y-62865000D03*
X87650000Y-87630000D03*
X90150000Y-87630000D03*
D23*
X133985000Y-140970000D03*
X133985000Y-143470000D03*
D27*
X72370000Y-100330000D03*
X69870000Y-100330000D03*
X110510000Y-104140000D03*
X113010000Y-104140000D03*
X57130000Y-100330000D03*
X54630000Y-100330000D03*
X80030000Y-113030000D03*
X82530000Y-113030000D03*
X52090000Y-140335000D03*
X54590000Y-140335000D03*
X48240000Y-150495000D03*
X45740000Y-150495000D03*
D28*
X111760000Y-59010000D03*
X113030000Y-59010000D03*
X110490000Y-59010000D03*
X115570000Y-59010000D03*
X114300000Y-59010000D03*
X115570000Y-62910000D03*
X114300000Y-62910000D03*
X113030000Y-62910000D03*
X111760000Y-62910000D03*
X110490000Y-62910000D03*
D29*
X151892000Y-91440000D03*
X154092000Y-91440000D03*
X151892000Y-88900000D03*
X154092000Y-88900000D03*
X151892000Y-86360000D03*
X154092000Y-86360000D03*
X151892000Y-83820000D03*
X154092000Y-83820000D03*
D30*
X133630000Y-117475000D03*
X133630000Y-111125000D03*
X133630000Y-112395000D03*
X133630000Y-113665000D03*
X133630000Y-114935000D03*
D31*
X117580000Y-114300000D03*
D30*
X133630000Y-116205000D03*
D32*
X54880000Y-112080000D03*
X54880000Y-113980000D03*
X56880000Y-113030000D03*
D33*
X164145000Y-90440000D03*
X162245000Y-90440000D03*
X163195000Y-92440000D03*
D34*
X185340000Y-81915000D03*
X188040000Y-81915000D03*
X139860000Y-52832000D03*
X137160000Y-52832000D03*
X175975000Y-84455000D03*
X173275000Y-84455000D03*
X175975000Y-81915000D03*
X173275000Y-81915000D03*
X173275000Y-76835000D03*
X175975000Y-76835000D03*
X175975000Y-79375000D03*
X173275000Y-79375000D03*
X133350000Y-94742000D03*
X136050000Y-94742000D03*
X185340000Y-76835000D03*
X188040000Y-76835000D03*
X185340000Y-79375000D03*
X188040000Y-79375000D03*
X133350000Y-97282000D03*
X136050000Y-97282000D03*
X137080000Y-57785000D03*
X139780000Y-57785000D03*
X94060000Y-69850000D03*
X91360000Y-69850000D03*
X164545000Y-83820000D03*
X161845000Y-83820000D03*
X137160000Y-62992000D03*
X139860000Y-62992000D03*
X98265000Y-153035000D03*
X100965000Y-153035000D03*
X161892000Y-86360000D03*
X164592000Y-86360000D03*
X92075000Y-153035000D03*
X89375000Y-153035000D03*
X53260000Y-90170000D03*
X55960000Y-90170000D03*
X53260000Y-95250000D03*
X55960000Y-95250000D03*
X72470000Y-74930000D03*
X69770000Y-74930000D03*
X45720000Y-97790000D03*
X48420000Y-97790000D03*
X48420000Y-95250000D03*
X45720000Y-95250000D03*
X53260000Y-92710000D03*
X55960000Y-92710000D03*
X53260000Y-87630000D03*
X55960000Y-87630000D03*
X46228000Y-75438000D03*
X48928000Y-75438000D03*
D35*
X60960000Y-82470000D03*
X60960000Y-85170000D03*
D34*
X72470000Y-92710000D03*
X69770000Y-92710000D03*
X69770000Y-95250000D03*
X72470000Y-95250000D03*
X72390000Y-97790000D03*
X69690000Y-97790000D03*
X185340000Y-84455000D03*
X188040000Y-84455000D03*
X154272000Y-57785000D03*
X156972000Y-57785000D03*
X92790000Y-93980000D03*
X90090000Y-93980000D03*
D35*
X66040000Y-82470000D03*
X66040000Y-85170000D03*
X78740000Y-85170000D03*
X78740000Y-82470000D03*
X83820000Y-85170000D03*
X83820000Y-82470000D03*
D34*
X69770000Y-81280000D03*
X72470000Y-81280000D03*
X72470000Y-113030000D03*
X69770000Y-113030000D03*
X154272000Y-60325000D03*
X156972000Y-60325000D03*
X69770000Y-87630000D03*
X72470000Y-87630000D03*
X199310000Y-90170000D03*
X202010000Y-90170000D03*
X190420000Y-95250000D03*
X193120000Y-95250000D03*
X199310000Y-95250000D03*
X202010000Y-95250000D03*
X202010000Y-92710000D03*
X199310000Y-92710000D03*
X54530000Y-109220000D03*
X57230000Y-109220000D03*
X69770000Y-115570000D03*
X72470000Y-115570000D03*
D35*
X139065000Y-143670000D03*
X139065000Y-140970000D03*
D34*
X128350000Y-153035000D03*
X125650000Y-153035000D03*
X48340000Y-145415000D03*
X45640000Y-145415000D03*
X45640000Y-147955000D03*
X48340000Y-147955000D03*
X54690000Y-153035000D03*
X51990000Y-153035000D03*
X122000000Y-153035000D03*
X119300000Y-153035000D03*
X51990000Y-150495000D03*
X54690000Y-150495000D03*
X115650000Y-153035000D03*
X112950000Y-153035000D03*
X109300000Y-153035000D03*
X106600000Y-153035000D03*
X72470000Y-102870000D03*
X69770000Y-102870000D03*
X72470000Y-105410000D03*
X69770000Y-105410000D03*
X69770000Y-107950000D03*
X72470000Y-107950000D03*
X92790000Y-96520000D03*
X90090000Y-96520000D03*
X92790000Y-91440000D03*
X90090000Y-91440000D03*
D21*
X78580000Y-95250000D03*
X78580000Y-96520000D03*
X78580000Y-97790000D03*
X78580000Y-99060000D03*
X78580000Y-100330000D03*
X78580000Y-101600000D03*
X78580000Y-102870000D03*
X83980000Y-102870000D03*
X83980000Y-101600000D03*
X83980000Y-100330000D03*
X83980000Y-99060000D03*
X83980000Y-97790000D03*
X83980000Y-96520000D03*
X83980000Y-95250000D03*
D36*
X127000000Y-52060000D03*
X127000000Y-53340000D03*
X133300000Y-53340000D03*
X133300000Y-52060000D03*
X133300000Y-58420000D03*
X133300000Y-57140000D03*
X127000000Y-57140000D03*
X127000000Y-58420000D03*
X133300000Y-63500000D03*
X133300000Y-62220000D03*
X127000000Y-62220000D03*
X127000000Y-63500000D03*
D37*
X170180000Y-53340000D03*
X170180000Y-63500000D03*
X170180000Y-43180000D03*
X190500000Y-63500000D03*
X190500000Y-55880000D03*
X190500000Y-50800000D03*
D38*
X176530000Y-93185000D03*
X175260000Y-93185000D03*
X173990000Y-93185000D03*
X172720000Y-93185000D03*
X171450000Y-93185000D03*
X170180000Y-93185000D03*
X168910000Y-93185000D03*
X168910000Y-98585000D03*
X170180000Y-98585000D03*
X171450000Y-98585000D03*
X172720000Y-98585000D03*
X173990000Y-98585000D03*
X175260000Y-98585000D03*
X176530000Y-98585000D03*
D39*
X51990000Y-145735000D03*
X51990000Y-146685000D03*
X51990000Y-147635000D03*
X54690000Y-147635000D03*
X54690000Y-145735000D03*
D40*
X145161000Y-57785000D03*
X145161000Y-59055000D03*
X145161000Y-60325000D03*
X145161000Y-61595000D03*
X150749000Y-61595000D03*
X150749000Y-60325000D03*
X150749000Y-59055000D03*
X150749000Y-57785000D03*
D24*
X57785000Y-125437500D03*
X56515000Y-125437500D03*
X55245000Y-125437500D03*
X53975000Y-125437500D03*
D25*
X53975000Y-136182500D03*
X55245000Y-136182500D03*
D24*
X56515000Y-136182500D03*
X57785000Y-136182500D03*
D34*
X141525000Y-91440000D03*
X144225000Y-91440000D03*
X141525000Y-88900000D03*
X144225000Y-88900000D03*
X141525000Y-86360000D03*
X144225000Y-86360000D03*
X141525000Y-83820000D03*
X144225000Y-83820000D03*
D41*
X98710000Y-58710000D03*
X98710000Y-63210000D03*
X86710000Y-63210000D03*
X86710000Y-58710000D03*
D39*
X54530000Y-103190000D03*
X54530000Y-104140000D03*
X54530000Y-105090000D03*
X57230000Y-105090000D03*
X57230000Y-103190000D03*
X57230000Y-104140000D03*
D42*
X110490000Y-49530000D03*
D43*
X112990000Y-49530000D03*
X115490000Y-49530000D03*
X110490000Y-46230000D03*
X112990000Y-46230000D03*
X115490000Y-46230000D03*
D22*
X60800000Y-88265000D03*
X60800000Y-89535000D03*
X60800000Y-90805000D03*
X60800000Y-92075000D03*
X66200000Y-92075000D03*
X66200000Y-90805000D03*
X66200000Y-89535000D03*
X66200000Y-88265000D03*
X78580000Y-88265000D03*
X78580000Y-89535000D03*
X78580000Y-90805000D03*
X78580000Y-92075000D03*
X83980000Y-92075000D03*
X83980000Y-90805000D03*
X83980000Y-89535000D03*
X83980000Y-88265000D03*
D36*
X73050000Y-66670000D03*
X73050000Y-67950000D03*
X79350000Y-67950000D03*
X79350000Y-66670000D03*
D22*
X78580000Y-107315000D03*
X78580000Y-108585000D03*
X78580000Y-109855000D03*
X78580000Y-111125000D03*
X83980000Y-111125000D03*
X83980000Y-109855000D03*
X83980000Y-108585000D03*
X83980000Y-107315000D03*
D34*
X52230000Y-51562000D03*
X49530000Y-51562000D03*
D44*
X132298000Y-103124000D03*
X127798000Y-103124000D03*
D34*
X69770000Y-110490000D03*
X72470000Y-110490000D03*
X54530000Y-116840000D03*
X57230000Y-116840000D03*
D23*
X105410000Y-88285000D03*
X105410000Y-90785000D03*
D39*
X110570000Y-86675000D03*
X110570000Y-85725000D03*
X110570000Y-84775000D03*
X107870000Y-84775000D03*
X107870000Y-86675000D03*
D45*
X74295000Y-55880000D03*
X197485000Y-46355000D03*
D46*
X199390000Y-62865000D03*
X40640000Y-56515000D03*
D45*
X199390000Y-73152000D03*
D46*
X202565000Y-140970000D03*
D45*
X75565000Y-153670000D03*
X199390000Y-81280000D03*
X68580000Y-139700000D03*
X48260000Y-113030000D03*
X158750000Y-97790000D03*
D46*
X201930000Y-111760000D03*
D47*
X71120000Y-146685000D03*
D48*
X68580000Y-146685000D03*
X66040000Y-146685000D03*
X63500000Y-146685000D03*
D45*
X45720000Y-81915000D03*
X45720000Y-87630000D03*
D34*
X137254000Y-67818000D03*
X139954000Y-67818000D03*
D49*
X202565000Y-151130000D03*
X35560000Y-151130000D03*
X35560000Y-34290000D03*
X202565000Y-34290000D03*
D36*
X133300000Y-68580000D03*
X133300000Y-67300000D03*
X127000000Y-67300000D03*
X127000000Y-68580000D03*
D50*
X63500000Y-51920000D03*
D51*
X60960000Y-68580000D03*
D52*
X63500000Y-68580000D03*
X66040000Y-68580000D03*
D45*
X55880000Y-78105000D03*
X79502000Y-76962000D03*
D17*
X40640000Y-118285000D03*
D18*
X39465000Y-124285000D03*
X41815000Y-124285000D03*
D17*
X46990000Y-118285000D03*
D18*
X45815000Y-124285000D03*
X48165000Y-124285000D03*
D17*
X97790000Y-106220000D03*
D18*
X96615000Y-112220000D03*
X98965000Y-112220000D03*
D45*
X182880000Y-90170000D03*
D23*
X80645000Y-121285000D03*
X80645000Y-118785000D03*
D53*
X46355000Y-101600000D03*
D54*
X46355000Y-104140000D03*
X46355000Y-106680000D03*
D35*
X88265000Y-121285000D03*
X88265000Y-118585000D03*
X85725000Y-118585000D03*
X85725000Y-121285000D03*
X83185000Y-121285000D03*
X83185000Y-118585000D03*
X78105000Y-121285000D03*
X78105000Y-118585000D03*
D45*
X111760000Y-99568000D03*
D46*
X74295000Y-44450000D03*
D11*
X66040000Y-24765000D03*
D12*
X61840000Y-24765000D03*
X57640000Y-24765000D03*
X53440000Y-24765000D03*
X49240000Y-24765000D03*
X45040000Y-24765000D03*
X66040000Y-19265000D03*
X61840000Y-19265000D03*
X57640000Y-19265000D03*
X53440000Y-19265000D03*
X49240000Y-19265000D03*
X45040000Y-19265000D03*
D11*
X90805000Y-24765000D03*
D12*
X86605000Y-24765000D03*
X82405000Y-24765000D03*
X78205000Y-24765000D03*
X74005000Y-24765000D03*
X90805000Y-19265000D03*
X86605000Y-19265000D03*
X82405000Y-19265000D03*
X78205000Y-19265000D03*
X74005000Y-19265000D03*
D11*
X111125000Y-24765000D03*
D12*
X106925000Y-24765000D03*
X102725000Y-24765000D03*
X98525000Y-24765000D03*
X111125000Y-19265000D03*
X106925000Y-19265000D03*
X102725000Y-19265000D03*
X98525000Y-19265000D03*
D47*
X83820000Y-43180000D03*
D48*
X86360000Y-43180000D03*
X88900000Y-43180000D03*
X91440000Y-43180000D03*
X93980000Y-43180000D03*
X96520000Y-43180000D03*
X99060000Y-43180000D03*
X101600000Y-43180000D03*
D11*
X127635000Y-24765000D03*
D12*
X123435000Y-24765000D03*
X119235000Y-24765000D03*
X127635000Y-19265000D03*
X123435000Y-19265000D03*
X119235000Y-19265000D03*
D55*
X35050000Y-86160000D03*
D43*
X39370000Y-88310000D03*
X39370000Y-85310000D03*
X39370000Y-82310000D03*
X39370000Y-79310000D03*
X39370000Y-76310000D03*
X39370000Y-73310000D03*
X39370000Y-70310000D03*
D55*
X35050000Y-69460000D03*
D43*
X39370000Y-67310000D03*
D11*
X163830000Y-24765000D03*
D12*
X163830000Y-19265000D03*
D11*
X36195000Y-99060000D03*
D12*
X36195000Y-104560000D03*
D56*
X115445000Y-142240000D03*
X112905000Y-142240000D03*
X101725000Y-142240000D03*
X104265000Y-142240000D03*
D57*
X128395000Y-142240000D03*
X88775000Y-142240000D03*
D45*
X128395000Y-137790000D03*
D46*
X68580000Y-123190000D03*
X97028000Y-86868000D03*
D11*
X156210000Y-24765000D03*
D12*
X152010000Y-24765000D03*
X156210000Y-19265000D03*
X152010000Y-19265000D03*
D34*
X144272000Y-94234000D03*
X141572000Y-94234000D03*
X49530000Y-66040000D03*
X52230000Y-66040000D03*
D58*
X80264000Y-139954000D03*
X80264000Y-146054000D03*
D29*
X151892000Y-94234000D03*
X154092000Y-94234000D03*
D59*
G36*
X205613000Y-125603000D02*
X199517000Y-125603000D01*
X199517000Y-119507000D01*
X205613000Y-119507000D01*
X205613000Y-125603000D01*
X205613000Y-125603000D01*
G37*
X205613000Y-125603000D02*
X199517000Y-125603000D01*
X199517000Y-119507000D01*
X205613000Y-119507000D01*
X205613000Y-125603000D01*
G36*
X68707000Y-64897000D02*
X58293000Y-64897000D01*
X58293000Y-48895000D01*
X68707000Y-48895000D01*
X68707000Y-64897000D01*
X68707000Y-64897000D01*
G37*
X68707000Y-64897000D02*
X58293000Y-64897000D01*
X58293000Y-48895000D01*
X68707000Y-48895000D01*
X68707000Y-64897000D01*
G36*
X191897000Y-33401000D02*
X176911000Y-33401000D01*
X176911000Y-25273000D01*
X191897000Y-25273000D01*
X191897000Y-33401000D01*
X191897000Y-33401000D01*
G37*
X191897000Y-33401000D02*
X176911000Y-33401000D01*
X176911000Y-25273000D01*
X191897000Y-25273000D01*
X191897000Y-33401000D01*
M02*
