G04 #@! TF.FileFunction,Soldermask,Top*
%FSLAX46Y46*%
G04 Gerber Fmt 4.6, Leading zero omitted, Abs format (unit mm)*
G04 Created by KiCad (PCBNEW 4.0.2-stable) date 3/28/2017 11:01:16 AM*
%MOMM*%
G01*
G04 APERTURE LIST*
%ADD10C,0.100000*%
%ADD11R,1.900000X0.950000*%
%ADD12R,0.950000X1.900000*%
%ADD13O,3.400000X1.900000*%
%ADD14R,1.900000X1.000000*%
%ADD15R,1.650000X0.705000*%
%ADD16R,2.051000X3.245000*%
%ADD17C,1.900000*%
%ADD18R,1.950000X1.000000*%
%ADD19R,1.900000X1.650000*%
%ADD20R,1.040000X2.305000*%
%ADD21R,1.050000X2.305000*%
%ADD22R,1.650000X1.900000*%
%ADD23R,2.400000X2.900000*%
%ADD24R,1.160000X2.800000*%
%ADD25R,1.600000X1.600000*%
%ADD26R,2.400000X2.800000*%
%ADD27R,5.400000X1.160000*%
%ADD28R,4.900000X9.200000*%
%ADD29R,1.300000X1.200000*%
%ADD30R,1.200000X1.300000*%
%ADD31R,1.900000X1.700000*%
%ADD32R,1.700000X1.900000*%
%ADD33R,1.700000X1.200000*%
%ADD34C,2.400000*%
%ADD35R,1.000000X1.900000*%
%ADD36R,1.960000X1.050000*%
%ADD37O,1.873200X1.009600*%
%ADD38R,5.400000X2.800000*%
%ADD39C,3.400000*%
%ADD40R,8.100000X3.500000*%
%ADD41R,4.200000X2.400000*%
%ADD42R,1.900000X2.400000*%
%ADD43R,3.225000X1.800000*%
%ADD44R,1.924000X1.924000*%
%ADD45C,1.924000*%
%ADD46R,2.100000X2.100000*%
%ADD47O,2.100000X2.100000*%
%ADD48R,2.400000X3.000000*%
%ADD49O,2.400000X3.000000*%
%ADD50R,2.127200X2.127200*%
%ADD51O,2.127200X2.127200*%
%ADD52R,2.900000X2.900000*%
%ADD53R,3.400000X3.400000*%
%ADD54C,3.150000*%
%ADD55C,3.900000*%
%ADD56C,7.400000*%
%ADD57C,4.900000*%
%ADD58R,2.200000X2.200000*%
%ADD59O,2.200000X2.200000*%
%ADD60C,0.254000*%
G04 APERTURE END LIST*
D10*
D11*
X118665000Y-77820000D03*
X118665000Y-78620000D03*
X118665000Y-79420000D03*
X118665000Y-80220000D03*
X118665000Y-81020000D03*
X118665000Y-81820000D03*
X118665000Y-82620000D03*
X118665000Y-83420000D03*
X118665000Y-84220000D03*
X118665000Y-85020000D03*
X118665000Y-85820000D03*
X118665000Y-86620000D03*
X118665000Y-87420000D03*
X118665000Y-88220000D03*
X118665000Y-89020000D03*
X118665000Y-89820000D03*
D12*
X120365000Y-91520000D03*
X121165000Y-91520000D03*
X121965000Y-91520000D03*
X122765000Y-91520000D03*
X123565000Y-91520000D03*
X124365000Y-91520000D03*
X125165000Y-91520000D03*
X125965000Y-91520000D03*
X126765000Y-91520000D03*
X127565000Y-91520000D03*
X128365000Y-91520000D03*
X129165000Y-91520000D03*
X129965000Y-91520000D03*
X130765000Y-91520000D03*
X131565000Y-91520000D03*
X132365000Y-91520000D03*
D11*
X134065000Y-89820000D03*
X134065000Y-89020000D03*
X134065000Y-88220000D03*
X134065000Y-87420000D03*
X134065000Y-86620000D03*
X134065000Y-85820000D03*
X134065000Y-85020000D03*
X134065000Y-84220000D03*
X134065000Y-83420000D03*
X134065000Y-82620000D03*
X134065000Y-81820000D03*
X134065000Y-81020000D03*
X134065000Y-80220000D03*
X134065000Y-79420000D03*
X134065000Y-78620000D03*
X134065000Y-77820000D03*
D12*
X132365000Y-76120000D03*
X131565000Y-76120000D03*
X130765000Y-76120000D03*
X129965000Y-76120000D03*
X129165000Y-76120000D03*
X128365000Y-76120000D03*
X127565000Y-76120000D03*
X126765000Y-76120000D03*
X125965000Y-76120000D03*
X125165000Y-76120000D03*
X124365000Y-76120000D03*
X123565000Y-76120000D03*
X122765000Y-76120000D03*
X121965000Y-76120000D03*
X121165000Y-76120000D03*
X120365000Y-76120000D03*
D13*
X34925000Y-135255000D03*
X34925000Y-132715000D03*
X34925000Y-127635000D03*
X34925000Y-122555000D03*
D14*
X106840000Y-104140000D03*
X106840000Y-102870000D03*
X106840000Y-101600000D03*
X106840000Y-100330000D03*
X106840000Y-99060000D03*
X106840000Y-97790000D03*
X106840000Y-96520000D03*
X101440000Y-96520000D03*
X101440000Y-97790000D03*
X101440000Y-99060000D03*
X101440000Y-100330000D03*
X101440000Y-101600000D03*
X101440000Y-102870000D03*
X101440000Y-104140000D03*
D15*
X107515500Y-146070000D03*
X107515500Y-145070000D03*
X107515500Y-144070000D03*
X107515500Y-143570000D03*
X107515500Y-143070000D03*
X107515500Y-142570000D03*
X103304500Y-142570000D03*
X103304500Y-143070000D03*
X103304500Y-143570000D03*
X103304500Y-144070000D03*
X103304500Y-145070000D03*
X103304500Y-146070000D03*
D16*
X105410000Y-144295000D03*
D17*
X105410000Y-144495000D03*
D18*
X60800000Y-75565000D03*
X60800000Y-76835000D03*
X60800000Y-78105000D03*
X60800000Y-79375000D03*
X66200000Y-79375000D03*
X66200000Y-78105000D03*
X66200000Y-76835000D03*
X66200000Y-75565000D03*
D19*
X187980000Y-138430000D03*
X190480000Y-138430000D03*
D20*
X180975000Y-136182500D03*
X182245000Y-136182500D03*
X183515000Y-136182500D03*
X184785000Y-136182500D03*
D21*
X184785000Y-125437500D03*
X183515000Y-125437500D03*
D20*
X182245000Y-125437500D03*
X180975000Y-125437500D03*
D22*
X44450000Y-122575000D03*
X44450000Y-125075000D03*
D23*
X172625000Y-78740000D03*
X176625000Y-78740000D03*
D22*
X127000000Y-95270000D03*
X127000000Y-97770000D03*
D19*
X119400000Y-94615000D03*
X121900000Y-94615000D03*
D22*
X202565000Y-52090000D03*
X202565000Y-54590000D03*
X197485000Y-52090000D03*
X197485000Y-54590000D03*
D19*
X59670000Y-71120000D03*
X57170000Y-71120000D03*
X52050000Y-56515000D03*
X49550000Y-56515000D03*
X55860000Y-85090000D03*
X53360000Y-85090000D03*
X69870000Y-77470000D03*
X72370000Y-77470000D03*
X69870000Y-90170000D03*
X72370000Y-90170000D03*
D22*
X120650000Y-115550000D03*
X120650000Y-113050000D03*
D19*
X124480000Y-146685000D03*
X126980000Y-146685000D03*
X55225000Y-78105000D03*
X52725000Y-78105000D03*
X70505000Y-71120000D03*
X73005000Y-71120000D03*
D22*
X179705000Y-101620000D03*
X179705000Y-104120000D03*
D19*
X92690000Y-113030000D03*
X90190000Y-113030000D03*
X181630000Y-112395000D03*
X184130000Y-112395000D03*
X175240000Y-122555000D03*
X172740000Y-122555000D03*
X57130000Y-119380000D03*
X54630000Y-119380000D03*
X57130000Y-121920000D03*
X54630000Y-121920000D03*
X181630000Y-122555000D03*
X184130000Y-122555000D03*
X60980000Y-139700000D03*
X63480000Y-139700000D03*
X57130000Y-139700000D03*
X54630000Y-139700000D03*
D22*
X165100000Y-50820000D03*
X165100000Y-53320000D03*
D19*
X87650000Y-87630000D03*
X90150000Y-87630000D03*
X181630000Y-139700000D03*
X184130000Y-139700000D03*
X72370000Y-100330000D03*
X69870000Y-100330000D03*
X110510000Y-104140000D03*
X113010000Y-104140000D03*
X57130000Y-100330000D03*
X54630000Y-100330000D03*
X80030000Y-113030000D03*
X82530000Y-113030000D03*
X60980000Y-137160000D03*
X63480000Y-137160000D03*
X57130000Y-147320000D03*
X54630000Y-147320000D03*
D24*
X111760000Y-59010000D03*
X113030000Y-59010000D03*
X110490000Y-59010000D03*
X115570000Y-59010000D03*
X114300000Y-59010000D03*
X115570000Y-62910000D03*
X114300000Y-62910000D03*
X113030000Y-62910000D03*
X111760000Y-62910000D03*
X110490000Y-62910000D03*
D25*
X151935000Y-91440000D03*
X154135000Y-91440000D03*
X151935000Y-88900000D03*
X154135000Y-88900000D03*
X151935000Y-86360000D03*
X154135000Y-86360000D03*
X151935000Y-83820000D03*
X154135000Y-83820000D03*
D26*
X97155000Y-146445000D03*
X97155000Y-141845000D03*
D27*
X156490000Y-106045000D03*
X156490000Y-99695000D03*
X156490000Y-100965000D03*
X156490000Y-102235000D03*
X156490000Y-103505000D03*
D28*
X140440000Y-102870000D03*
D27*
X156490000Y-104775000D03*
D29*
X54880000Y-112080000D03*
X54880000Y-113980000D03*
X56880000Y-113030000D03*
D30*
X164145000Y-90440000D03*
X162245000Y-90440000D03*
X163195000Y-92440000D03*
D31*
X185340000Y-88900000D03*
X188040000Y-88900000D03*
X139780000Y-52705000D03*
X137080000Y-52705000D03*
X175975000Y-91440000D03*
X173275000Y-91440000D03*
X175975000Y-88900000D03*
X173275000Y-88900000D03*
X173275000Y-83820000D03*
X175975000Y-83820000D03*
X175975000Y-86360000D03*
X173275000Y-86360000D03*
D32*
X128905000Y-100885000D03*
X128905000Y-103585000D03*
D31*
X185340000Y-83820000D03*
X188040000Y-83820000D03*
X185340000Y-86360000D03*
X188040000Y-86360000D03*
D32*
X126365000Y-100885000D03*
X126365000Y-103585000D03*
D31*
X137080000Y-57785000D03*
X139780000Y-57785000D03*
X94060000Y-69850000D03*
X91360000Y-69850000D03*
X164545000Y-83820000D03*
X161845000Y-83820000D03*
X139780000Y-69215000D03*
X137080000Y-69215000D03*
X132000000Y-153035000D03*
X134700000Y-153035000D03*
X161845000Y-86360000D03*
X164545000Y-86360000D03*
X123110000Y-153035000D03*
X125810000Y-153035000D03*
X114220000Y-153035000D03*
X116920000Y-153035000D03*
X53260000Y-90170000D03*
X55960000Y-90170000D03*
X53260000Y-95250000D03*
X55960000Y-95250000D03*
X72470000Y-74930000D03*
X69770000Y-74930000D03*
D32*
X46990000Y-101520000D03*
X46990000Y-104220000D03*
X46990000Y-97870000D03*
X46990000Y-95170000D03*
D31*
X53260000Y-92710000D03*
X55960000Y-92710000D03*
X53260000Y-87630000D03*
X55960000Y-87630000D03*
X52625000Y-75565000D03*
X55325000Y-75565000D03*
D32*
X60960000Y-82470000D03*
X60960000Y-85170000D03*
D31*
X72470000Y-92710000D03*
X69770000Y-92710000D03*
X69770000Y-95250000D03*
X72470000Y-95250000D03*
X69770000Y-97790000D03*
X72470000Y-97790000D03*
X185340000Y-91440000D03*
X188040000Y-91440000D03*
X132635000Y-111760000D03*
X135335000Y-111760000D03*
X92790000Y-93980000D03*
X90090000Y-93980000D03*
D32*
X66040000Y-82470000D03*
X66040000Y-85170000D03*
X78740000Y-85170000D03*
X78740000Y-82470000D03*
X83820000Y-85170000D03*
X83820000Y-82470000D03*
D31*
X69770000Y-81280000D03*
X72470000Y-81280000D03*
X72470000Y-113030000D03*
X69770000Y-113030000D03*
X132635000Y-114300000D03*
X135335000Y-114300000D03*
X92790000Y-118110000D03*
X90090000Y-118110000D03*
X90090000Y-100330000D03*
X92790000Y-100330000D03*
X92790000Y-102870000D03*
X90090000Y-102870000D03*
X69770000Y-87630000D03*
X72470000Y-87630000D03*
X49450000Y-66040000D03*
X52150000Y-66040000D03*
X49450000Y-60960000D03*
X52150000Y-60960000D03*
X90090000Y-115570000D03*
X92790000Y-115570000D03*
X181530000Y-114935000D03*
X184230000Y-114935000D03*
X172640000Y-120015000D03*
X175340000Y-120015000D03*
X181530000Y-120015000D03*
X184230000Y-120015000D03*
X184230000Y-117475000D03*
X181530000Y-117475000D03*
X54530000Y-109220000D03*
X57230000Y-109220000D03*
X69770000Y-115570000D03*
X72470000Y-115570000D03*
X190580000Y-135890000D03*
X187880000Y-135890000D03*
X172800000Y-138430000D03*
X170100000Y-138430000D03*
X57230000Y-142240000D03*
X54530000Y-142240000D03*
X54530000Y-144780000D03*
X57230000Y-144780000D03*
X63580000Y-149860000D03*
X60880000Y-149860000D03*
X166450000Y-138430000D03*
X163750000Y-138430000D03*
X60880000Y-147320000D03*
X63580000Y-147320000D03*
X160100000Y-138430000D03*
X157400000Y-138430000D03*
X153750000Y-138430000D03*
X151050000Y-138430000D03*
X72470000Y-102870000D03*
X69770000Y-102870000D03*
X72470000Y-105410000D03*
X69770000Y-105410000D03*
X69770000Y-107950000D03*
X72470000Y-107950000D03*
X92790000Y-96520000D03*
X90090000Y-96520000D03*
X92790000Y-91440000D03*
X90090000Y-91440000D03*
D14*
X78580000Y-95250000D03*
X78580000Y-96520000D03*
X78580000Y-97790000D03*
X78580000Y-99060000D03*
X78580000Y-100330000D03*
X78580000Y-101600000D03*
X78580000Y-102870000D03*
X83980000Y-102870000D03*
X83980000Y-101600000D03*
X83980000Y-100330000D03*
X83980000Y-99060000D03*
X83980000Y-97790000D03*
X83980000Y-96520000D03*
X83980000Y-95250000D03*
D33*
X127025000Y-52065000D03*
X127025000Y-53345000D03*
X133325000Y-53345000D03*
X133325000Y-52065000D03*
X133325000Y-58425000D03*
X133325000Y-57145000D03*
X127025000Y-57145000D03*
X127025000Y-58425000D03*
X133325000Y-64775000D03*
X133325000Y-63495000D03*
X127025000Y-63495000D03*
X127025000Y-64775000D03*
D34*
X170180000Y-53340000D03*
X170180000Y-63500000D03*
X170180000Y-43180000D03*
X190500000Y-63500000D03*
X190500000Y-55880000D03*
X190500000Y-50800000D03*
D35*
X176530000Y-100170000D03*
X175260000Y-100170000D03*
X173990000Y-100170000D03*
X172720000Y-100170000D03*
X171450000Y-100170000D03*
X170180000Y-100170000D03*
X168910000Y-100170000D03*
X168910000Y-105570000D03*
X170180000Y-105570000D03*
X171450000Y-105570000D03*
X172720000Y-105570000D03*
X173990000Y-105570000D03*
X175260000Y-105570000D03*
X176530000Y-105570000D03*
D36*
X60880000Y-142560000D03*
X60880000Y-143510000D03*
X60880000Y-144460000D03*
X63580000Y-144460000D03*
X63580000Y-142560000D03*
D37*
X123571000Y-112395000D03*
X123571000Y-113665000D03*
X123571000Y-114935000D03*
X123571000Y-116205000D03*
X129159000Y-116205000D03*
X129159000Y-114935000D03*
X129159000Y-113665000D03*
X129159000Y-112395000D03*
D20*
X57785000Y-125437500D03*
X56515000Y-125437500D03*
X55245000Y-125437500D03*
X53975000Y-125437500D03*
D21*
X53975000Y-136182500D03*
X55245000Y-136182500D03*
D20*
X56515000Y-136182500D03*
X57785000Y-136182500D03*
D38*
X140970000Y-152725000D03*
X140970000Y-145725000D03*
D39*
X43180000Y-144145000D03*
D40*
X116840000Y-148865000D03*
X116840000Y-141965000D03*
D41*
X130175000Y-45695000D03*
D42*
X130175000Y-39395000D03*
X127875000Y-39395000D03*
X132475000Y-39395000D03*
D31*
X105330000Y-153035000D03*
X108030000Y-153035000D03*
X105330000Y-150495000D03*
X108030000Y-150495000D03*
X141525000Y-91440000D03*
X144225000Y-91440000D03*
X141525000Y-88900000D03*
X144225000Y-88900000D03*
X141525000Y-86360000D03*
X144225000Y-86360000D03*
X141525000Y-83820000D03*
X144225000Y-83820000D03*
X128985000Y-141605000D03*
X126285000Y-141605000D03*
X126285000Y-144145000D03*
X128985000Y-144145000D03*
D43*
X98710000Y-58710000D03*
X98710000Y-63210000D03*
X86710000Y-63210000D03*
X86710000Y-58710000D03*
D36*
X54530000Y-103190000D03*
X54530000Y-104140000D03*
X54530000Y-105090000D03*
X57230000Y-105090000D03*
X57230000Y-103190000D03*
X57230000Y-104140000D03*
D44*
X110490000Y-49530000D03*
D45*
X112990000Y-49530000D03*
X115490000Y-49530000D03*
X110490000Y-46230000D03*
X112990000Y-46230000D03*
X115490000Y-46230000D03*
D18*
X60800000Y-88265000D03*
X60800000Y-89535000D03*
X60800000Y-90805000D03*
X60800000Y-92075000D03*
X66200000Y-92075000D03*
X66200000Y-90805000D03*
X66200000Y-89535000D03*
X66200000Y-88265000D03*
X78580000Y-88265000D03*
X78580000Y-89535000D03*
X78580000Y-90805000D03*
X78580000Y-92075000D03*
X83980000Y-92075000D03*
X83980000Y-90805000D03*
X83980000Y-89535000D03*
X83980000Y-88265000D03*
D33*
X73050000Y-66670000D03*
X73050000Y-67950000D03*
X79350000Y-67950000D03*
X79350000Y-66670000D03*
X73050000Y-61590000D03*
X73050000Y-62870000D03*
X79350000Y-62870000D03*
X79350000Y-61590000D03*
D46*
X63500000Y-102870000D03*
D47*
X63500000Y-105410000D03*
X63500000Y-107950000D03*
D18*
X78580000Y-107315000D03*
X78580000Y-108585000D03*
X78580000Y-109855000D03*
X78580000Y-111125000D03*
X83980000Y-111125000D03*
X83980000Y-109855000D03*
X83980000Y-108585000D03*
X83980000Y-107315000D03*
D48*
X83820000Y-43815000D03*
D49*
X86360000Y-43815000D03*
X88900000Y-43815000D03*
X91440000Y-43815000D03*
X93980000Y-43815000D03*
X96520000Y-43815000D03*
X99060000Y-43815000D03*
X101600000Y-43815000D03*
D50*
X38100000Y-107950000D03*
D51*
X35560000Y-107950000D03*
X38100000Y-105410000D03*
X35560000Y-105410000D03*
X38100000Y-102870000D03*
X35560000Y-102870000D03*
X38100000Y-100330000D03*
X35560000Y-100330000D03*
X38100000Y-97790000D03*
X35560000Y-97790000D03*
X38100000Y-95250000D03*
X35560000Y-95250000D03*
X38100000Y-92710000D03*
X35560000Y-92710000D03*
X38100000Y-90170000D03*
X35560000Y-90170000D03*
X38100000Y-87630000D03*
X35560000Y-87630000D03*
X38100000Y-85090000D03*
X35560000Y-85090000D03*
D50*
X156210000Y-60960000D03*
D51*
X153670000Y-60960000D03*
X156210000Y-58420000D03*
X153670000Y-58420000D03*
X156210000Y-55880000D03*
X153670000Y-55880000D03*
X156210000Y-53340000D03*
X153670000Y-53340000D03*
X156210000Y-50800000D03*
X153670000Y-50800000D03*
X156210000Y-48260000D03*
X153670000Y-48260000D03*
X156210000Y-45720000D03*
X153670000Y-45720000D03*
D31*
X137080000Y-39370000D03*
X139780000Y-39370000D03*
D52*
X124170000Y-97790000D03*
X119670000Y-97790000D03*
D31*
X69770000Y-110490000D03*
X72470000Y-110490000D03*
X54530000Y-116840000D03*
X57230000Y-116840000D03*
D22*
X105410000Y-88285000D03*
X105410000Y-90785000D03*
D36*
X110570000Y-86675000D03*
X110570000Y-85725000D03*
X110570000Y-84775000D03*
X107870000Y-84775000D03*
X107870000Y-86675000D03*
D39*
X196850000Y-83820000D03*
X92710000Y-138430000D03*
X74295000Y-55880000D03*
X197485000Y-46355000D03*
D53*
X199390000Y-62865000D03*
X40640000Y-56515000D03*
D39*
X38100000Y-117475000D03*
D53*
X35560000Y-144145000D03*
D39*
X196850000Y-91440000D03*
X92075000Y-151765000D03*
X196850000Y-99695000D03*
X85090000Y-138430000D03*
X100330000Y-109220000D03*
X46355000Y-117475000D03*
X111125000Y-96520000D03*
X111125000Y-92075000D03*
X168910000Y-112395000D03*
D53*
X196215000Y-106680000D03*
D48*
X87630000Y-144780000D03*
D49*
X85090000Y-144780000D03*
X82550000Y-144780000D03*
X80010000Y-144780000D03*
D54*
X175770000Y-147320000D03*
X173230000Y-147320000D03*
X162050000Y-147320000D03*
X164590000Y-147320000D03*
D55*
X188720000Y-147320000D03*
X149100000Y-147320000D03*
D39*
X188720000Y-142870000D03*
X45720000Y-81915000D03*
X45720000Y-87630000D03*
D31*
X154385000Y-74930000D03*
X151685000Y-74930000D03*
D56*
X202565000Y-151130000D03*
X35560000Y-151130000D03*
X35560000Y-34290000D03*
X202565000Y-34290000D03*
D33*
X158140000Y-74925000D03*
X158140000Y-76205000D03*
X164440000Y-76205000D03*
X164440000Y-74925000D03*
D57*
X63500000Y-51920000D03*
D58*
X60960000Y-68580000D03*
D59*
X63500000Y-68580000D03*
X66040000Y-68580000D03*
D60*
G36*
X205613000Y-125603000D02*
X199517000Y-125603000D01*
X199517000Y-119507000D01*
X205613000Y-119507000D01*
X205613000Y-125603000D01*
X205613000Y-125603000D01*
G37*
X205613000Y-125603000D02*
X199517000Y-125603000D01*
X199517000Y-119507000D01*
X205613000Y-119507000D01*
X205613000Y-125603000D01*
G36*
X53213000Y-51943000D02*
X38227000Y-51943000D01*
X38227000Y-43942000D01*
X53213000Y-43942000D01*
X53213000Y-51943000D01*
X53213000Y-51943000D01*
G37*
X53213000Y-51943000D02*
X38227000Y-51943000D01*
X38227000Y-43942000D01*
X53213000Y-43942000D01*
X53213000Y-51943000D01*
M02*
