M48
;DRILL file {KiCad 4.0.2-stable} date 3/28/2017 11:01:19 AM
;FORMAT={-:-/ absolute / inch / decimal}
FMAT,2
INCH,TZ
T1C0.016
T2C0.035
T3C0.039
T4C0.040
T5C0.047
T6C0.051
T7C0.071
T8C0.110
T9C0.130
T10C0.138
%
G90
G05
M72
T1
X1.3Y-2.6
X1.35Y-2.4
X1.4Y-2.7
X1.4Y-4.05
X1.4Y-4.15
X1.4Y-4.6
X1.55Y-5.425
X1.55Y-5.625
X1.6Y-2.975
X1.675Y-2.9
X1.675Y-3.45
X1.75Y-3.95
X1.75Y-4.1
X1.8Y-3.85
X1.8Y-4.
X1.85Y-4.3
X1.85Y-4.525
X1.925Y-3.85
X1.925Y-4.1
X1.95Y-5.3615
X1.95Y-5.5
X1.95Y-6.025
X2.Y-3.25
X2.Y-3.5
X2.05Y-3.35
X2.05Y-3.45
X2.05Y-5.7
X2.075Y-3.8
X2.075Y-4.05
X2.075Y-4.2
X2.075Y-4.425
X2.075Y-4.6
X2.175Y-2.225
X2.175Y-2.7
X2.175Y-5.45
X2.225Y-5.45
X2.25Y-2.4
X2.275Y-3.575
X2.275Y-3.65
X2.2992Y-4.7
X2.3Y-3.95
X2.3Y-4.1
X2.3Y-4.15
X2.3Y-4.25
X2.3Y-4.3
X2.3Y-4.875
X2.3Y-4.95
X2.3Y-5.6
X2.32Y-3.53
X2.32Y-3.75
X2.325Y-2.975
X2.325Y-3.025
X2.325Y-3.25
X2.325Y-5.4
X2.325Y-5.65
X2.325Y-5.7
X2.325Y-5.9
X2.35Y-3.35
X2.35Y-3.45
X2.35Y-3.9
X2.35Y-4.225
X2.35Y-4.75
X2.35Y-4.8
X2.35Y-5.6
X2.35Y-5.8
X2.375Y-4.35
X2.375Y-4.725
X2.4Y-2.7
X2.4Y-2.8
X2.4Y-4.05
X2.4Y-4.3
X2.4Y-4.4
X2.4Y-4.45
X2.45Y-4.15
X2.45Y-4.2
X2.46Y-3.21
X2.46Y-3.35
X2.46Y-3.63
X2.5Y-4.15
X2.54Y-3.47
X2.54Y-3.67
X2.55Y-3.85
X2.55Y-4.05
X2.55Y-4.1
X2.55Y-4.35
X2.55Y-4.5
X2.575Y-4.15
X2.6Y-2.7
X2.6Y-4.
X2.6Y-4.3
X2.6Y-5.55
X2.65Y-3.05
X2.65Y-3.2469
X2.65Y-3.7
X2.65Y-4.35
X2.675Y-2.85
X2.675Y-2.975
X2.675Y-3.45
X2.675Y-3.85
X2.675Y-3.975
X2.675Y-4.25
X2.675Y-4.45
X2.675Y-5.4
X2.675Y-5.5
X2.675Y-5.65
X2.675Y-5.9
X2.675Y-6.025
X2.68Y-3.49
X2.68Y-3.53
X2.7Y-2.95
X2.7Y-3.05
X2.7Y-3.125
X2.75Y-1.45
X2.75Y-2.425
X2.8Y-2.2
X2.8Y-3.25
X2.8Y-3.41
X2.8Y-3.7
X2.9Y-3.7
X2.9Y-3.8
X2.9Y-3.95
X2.9Y-4.55
X2.9Y-4.7
X2.925Y-3.35
X2.925Y-3.55
X2.9281Y-3.65
X2.935Y-3.75
X2.97Y-3.45
X2.975Y-3.55
X2.975Y-3.85
X2.975Y-4.05
X2.975Y-4.15
X3.Y-4.35
X3.Y-4.4
X3.02Y-3.59
X3.02Y-3.65
X3.025Y-3.3
X3.025Y-3.47
X3.025Y-3.8
X3.025Y-3.9
X3.025Y-3.95
X3.025Y-4.
X3.025Y-4.275
X3.05Y-4.4
X3.05Y-4.85
X3.075Y-2.425
X3.075Y-2.925
X3.1Y-4.45
X3.15Y-3.75
X3.15Y-4.15
X3.15Y-5.325
X3.175Y-2.625
X3.175Y-2.95
X3.175Y-3.525
X3.175Y-3.625
X3.2Y-3.25
X3.2Y-3.9
X3.2Y-4.05
X3.2Y-4.2
X3.25Y-3.3531
X3.25Y-3.53
X3.25Y-3.6
X3.25Y-3.7
X3.25Y-4.1
X3.25Y-4.25
X3.25Y-6.025
X3.3Y-3.075
X3.35Y-3.125
X3.35Y-3.7
X3.35Y-3.8
X3.375Y-4.
X3.375Y-4.25
X3.375Y-4.325
X3.375Y-4.45
X3.375Y-4.55
X3.375Y-4.65
X3.38Y-3.41
X3.38Y-3.85
X3.4Y-2.55
X3.4Y-2.75
X3.4Y-4.1
X3.4Y-4.2
X3.425Y-3.65
X3.425Y-3.9
X3.425Y-4.
X3.425Y-4.05
X3.45Y-2.85
X3.45Y-3.375
X3.45Y-3.85
X3.45Y-4.15
X3.45Y-6.025
X3.4719Y-3.6
X3.475Y-3.7
X3.475Y-3.95
X3.475Y-4.05
X3.475Y-4.375
X3.5Y-3.8
X3.7Y-3.175
X3.7Y-3.8
X3.7Y-3.9
X3.7Y-3.95
X3.7Y-4.3
X3.7Y-4.45
X3.7Y-4.55
X3.7031Y-3.7
X3.75Y-2.75
X3.75Y-4.05
X3.75Y-4.175
X3.8Y-3.225
X3.85Y-4.
X3.85Y-4.05
X3.875Y-3.95
X3.9Y-1.875
X3.9Y-4.
X3.9Y-4.1
X3.95Y-3.75
X3.95Y-4.1
X4.Y-3.525
X4.Y-3.75
X4.Y-5.55
X4.Y-5.625
X4.Y-5.7
X4.Y-5.925
X4.05Y-3.3
X4.05Y-4.
X4.075Y-5.5
X4.075Y-5.575
X4.1Y-3.375
X4.125Y-2.925
X4.125Y-3.275
X4.15Y-3.9
X4.15Y-4.6
X4.175Y-3.425
X4.2Y-3.25
X4.2Y-3.325
X4.225Y-4.15
X4.275Y-3.55
X4.275Y-4.5
X4.3Y-2.
X4.3Y-2.575
X4.3Y-5.55
X4.3Y-5.625
X4.35Y-2.55
X4.35Y-2.875
X4.35Y-5.7
X4.375Y-2.2
X4.4Y-3.325
X4.4Y-3.45
X4.4Y-5.475
X4.4Y-5.6
X4.425Y-2.025
X4.425Y-2.8
X4.425Y-3.35
X4.425Y-3.4
X4.45Y-2.55
X4.45Y-2.85
X4.475Y-2.95
X4.475Y-3.475
X4.5Y-2.225
X4.5Y-3.5
X4.5Y-3.9
X4.525Y-3.25
X4.525Y-3.375
X4.525Y-3.6
X4.525Y-4.65
X4.55Y-1.725
X4.55Y-3.225
X4.6Y-1.75
X4.6Y-2.475
X4.725Y-3.05
X4.75Y-3.325
X4.775Y-3.05
X4.8Y-2.95
X4.8Y-3.525
X4.8Y-4.55
X4.825Y-4.3
X4.825Y-4.425
X4.825Y-5.775
X4.85Y-1.45
X4.85Y-2.3
X4.85Y-2.55
X4.85Y-3.525
X4.875Y-2.65
X4.875Y-3.05
X4.9Y-1.95
X4.9Y-2.1
X4.9Y-2.825
X4.9Y-2.95
X4.9Y-3.65
X4.9Y-3.725
X4.925Y-3.525
X4.95Y-2.05
X4.95Y-2.15
X4.95Y-2.875
X4.95Y-2.95
X4.968Y-3.205
X4.969Y-3.31
X4.975Y-4.125
X4.99Y-2.95
X5.Y-2.85
X5.Y-4.35
X5.Y-4.575
X5.025Y-2.8
X5.025Y-2.95
X5.05Y-1.875
X5.05Y-2.925
X5.075Y-3.075
X5.075Y-3.75
X5.075Y-3.9
X5.075Y-4.125
X5.1Y-2.925
X5.1Y-3.725
X5.1Y-3.925
X5.125Y-1.6
X5.125Y-1.75
X5.125Y-2.75
X5.125Y-3.05
X5.15Y-1.9
X5.15Y-2.5
X5.15Y-3.675
X5.15Y-4.3
X5.2Y-2.05
X5.2Y-3.25
X5.2Y-3.675
X5.2Y-4.35
X5.225Y-4.55
X5.225Y-4.75
X5.325Y-2.725
X5.325Y-3.1
X5.325Y-4.55
X5.325Y-4.725
X5.3469Y-2.075
X5.35Y-2.15
X5.35Y-3.45
X5.35Y-3.5
X5.4Y-3.2
X5.4Y-3.35
X5.45Y-2.9
X5.45Y-3.2
X5.5Y-3.3
X5.5Y-3.375
X5.5Y-3.6
X5.55Y-3.05
X5.5531Y-2.275
X5.6Y-1.8
X5.6Y-2.3
X5.6Y-2.575
X5.6Y-2.725
X5.65Y-2.
X5.65Y-2.175
X5.75Y-1.7
X5.75Y-3.725
X5.775Y-1.65
X5.775Y-3.75
X5.85Y-5.45
X5.875Y-2.1
X5.875Y-3.125
X6.05Y-3.075
X6.1Y-1.55
X6.3Y-1.8
X6.3Y-2.75
X6.3Y-3.5
X6.3Y-4.025
X6.3Y-4.125
X6.4Y-1.45
X6.4Y-2.2
X6.425Y-3.7
X6.425Y-4.075
X6.475Y-2.875
X6.5Y-1.9
X6.525Y-3.55
X6.525Y-3.6
X6.525Y-3.975
X6.5281Y-3.4
X6.575Y-2.85
X6.575Y-4.15
X6.65Y-2.65
X6.65Y-3.1
X6.65Y-3.725
X6.65Y-3.9
X6.65Y-4.2
X6.65Y-4.275
X6.65Y-4.425
X6.7Y-3.175
X6.7Y-3.9
X6.7Y-4.2
X6.7Y-4.25
X6.75Y-3.825
X6.75Y-3.9
X6.8008Y-4.0008
X6.85Y-3.65
X6.85Y-3.9
X6.875Y-5.45
X6.9Y-3.675
X6.9Y-3.9
X6.95Y-3.7
X6.95Y-3.9
X6.95Y-4.225
X6.95Y-4.725
X6.95Y-4.775
X6.95Y-4.825
X6.975Y-3.5
X6.975Y-3.675
X7.Y-3.2
X7.Y-3.4
X7.Y-3.7
X7.025Y-3.65
X7.025Y-5.45
X7.0281Y-3.3
X7.05Y-4.725
X7.05Y-4.875
X7.1Y-4.275
X7.1Y-4.425
X7.1Y-4.525
X7.1Y-4.825
X7.1Y-4.95
X7.1008Y-4.425
X7.2Y-3.4
X7.25Y-3.175
X7.25Y-3.3
X7.25Y-3.6
X7.3Y-4.25
X7.3Y-4.425
X7.3Y-4.525
X7.3Y-4.575
X7.325Y-4.625
X7.325Y-4.875
X7.325Y-5.375
X7.325Y-5.525
X7.4Y-3.65
X7.4Y-3.725
X7.45Y-3.4
X7.45Y-3.5
X7.45Y-3.825
X7.5Y-2.75
X7.5Y-3.3
X7.85Y-3.3
T2
X4.35Y-1.8201
X4.35Y-1.95
X4.4484Y-1.8201
X4.4484Y-1.95
X4.5469Y-1.8201
X4.5469Y-1.95
T3
X1.375Y-4.825
X1.375Y-5.025
X1.375Y-5.225
X1.375Y-5.325
X2.4Y-2.7
X2.5Y-2.7
X2.5Y-4.05
X2.5Y-4.15
X2.5Y-4.25
X2.6Y-2.7
X4.15Y-5.6888
T4
X1.4Y-3.35
X1.4Y-3.45
X1.4Y-3.55
X1.4Y-3.65
X1.4Y-3.75
X1.4Y-3.85
X1.4Y-3.95
X1.4Y-4.05
X1.4Y-4.15
X1.4Y-4.25
X1.5Y-3.35
X1.5Y-3.45
X1.5Y-3.55
X1.5Y-3.65
X1.5Y-3.75
X1.5Y-3.85
X1.5Y-3.95
X1.5Y-4.05
X1.5Y-4.15
X1.5Y-4.25
X6.05Y-1.8
X6.05Y-1.9
X6.05Y-2.
X6.05Y-2.1
X6.05Y-2.2
X6.05Y-2.3
X6.05Y-2.4
X6.15Y-1.8
X6.15Y-1.9
X6.15Y-2.
X6.15Y-2.1
X6.15Y-2.2
X6.15Y-2.3
X6.15Y-2.4
T5
X3.15Y-5.7
X3.25Y-5.7
X3.3Y-1.725
X3.35Y-5.7
X3.4Y-1.725
X3.45Y-5.7
X3.5Y-1.725
X3.6Y-1.725
X3.7Y-1.725
X3.8Y-1.725
X3.9Y-1.725
X4.Y-1.725
T6
X6.7Y-1.7
X6.7Y-2.1
X6.7Y-2.5
X7.5Y-2.
X7.5Y-2.2
X7.5Y-2.5
T7
X6.3799Y-5.8
X6.4799Y-5.8
X6.8201Y-5.8
X6.9201Y-5.8
T8
X7.4299Y-5.6248
T9
X5.8701Y-5.8
X7.4299Y-5.8
T10
X1.4Y-1.35
X1.4Y-5.95
X2.5Y-2.0441
X7.975Y-1.35
X7.975Y-5.95
T0
M30
